<?xml version="1.0" standalone="no"?>
<!DOCTYPE svg PUBLIC "-//W3C//DTD SVG 20010904//EN"
 "http://www.w3.org/TR/2001/REC-SVG-20010904/DTD/svg10.dtd">
<svg version="1.0" xmlns="http://www.w3.org/2000/svg"
 width="300.000000pt" height="300.000000pt" viewBox="0 0 300.000000 300.000000"
 preserveAspectRatio="xMidYMid meet">

<g transform="translate(0.000000,300.000000) scale(0.100000,-0.100000)"
fill="#000000" stroke="none">
<path d="M1427 2934 c-29 -15 -45 -29 -41 -36 4 -7 3 -8 -4 -4 -15 9 -165 -64
-236 -115 -55 -39 -152 -162 -193 -244 -27 -53 -72 -178 -72 -202 -1 -10 -3
-56 -6 -103 -2 -48 -1 -79 4 -72 7 11 10 10 15 -3 9 -24 7 -37 -4 -30 -15 9
-12 -21 7 -63 22 -49 22 -53 2 -80 -14 -18 -15 -29 -8 -55 5 -18 9 -97 8 -177
0 -80 4 -157 9 -171 12 -29 53 -59 86 -63 38 -4 43 -13 61 -113 10 -54 26
-120 36 -148 l19 -50 -104 -101 c-56 -56 -117 -109 -135 -118 -17 -9 -73 -27
-125 -40 -51 -13 -164 -52 -252 -87 -87 -34 -234 -87 -326 -118 l-167 -56 -1
-342 0 -343 616 0 616 0 -5 33 c-30 171 -31 188 -13 219 10 16 15 37 11 46 -3
9 -6 55 -6 102 0 60 -6 101 -20 140 -65 181 -90 295 -95 425 l-5 110 19 -46
c31 -75 82 -159 139 -226 60 -71 262 -273 273 -273 4 0 16 -8 28 -18 l21 -19
-29 0 c-17 0 -52 -15 -84 -36 -69 -46 -196 -155 -196 -168 0 -6 4 -8 9 -5 9 6
69 -48 110 -99 18 -22 24 -40 22 -70 -1 -31 4 -46 19 -60 11 -10 20 -27 20
-37 0 -17 10 -18 159 -17 157 2 159 2 152 23 -8 25 -8 172 0 180 8 8 159 -71
179 -93 8 -9 23 -22 33 -30 17 -13 18 -12 11 13 -10 42 -112 226 -152 276 -46
56 -56 64 -115 96 -48 25 -49 25 -105 9 -31 -9 -72 -25 -90 -36 -18 -10 -30
-14 -26 -8 8 14 103 59 124 59 17 0 133 70 127 76 -5 5 -57 -20 -57 -28 0 -6
-39 -3 -46 5 -2 2 -5 12 -7 23 -9 48 -20 73 -33 78 -8 3 -14 11 -14 18 0 9 3
9 12 0 7 -7 17 -12 23 -12 6 0 7 3 0 8 -16 11 -41 47 -29 39 7 -4 15 0 18 9 9
23 7 36 -4 29 -6 -3 -10 1 -10 10 0 9 5 13 10 10 6 -3 10 1 10 9 0 22 29 46
56 46 13 0 24 5 24 11 0 6 9 9 20 6 11 -3 25 2 32 12 12 15 11 15 -7 1 -19
-14 -19 -14 -6 3 8 10 21 17 29 15 8 -2 30 12 49 31 23 23 40 32 53 28 11 -3
20 -1 20 5 0 5 7 16 15 25 9 8 34 43 56 77 39 58 39 59 7 25 -18 -21 -51 -42
-73 -49 -22 -7 -48 -19 -57 -28 -12 -10 -18 -11 -18 -3 0 11 -19 11 -133 -4
-31 -4 -54 -2 -63 6 -9 8 -14 8 -14 1 0 -23 -127 35 -136 61 -3 10 -11 16 -18
14 -7 -3 -19 -1 -27 4 -12 7 -12 12 0 31 l14 23 -24 -22 -24 -22 -23 34 c-12
19 -22 42 -22 51 0 15 -22 44 -34 44 -3 0 -3 -8 0 -17 5 -17 5 -17 -6 0 -6 9
-8 27 -4 40 6 18 4 20 -7 10 -17 -14 -32 -6 -42 20 -4 10 -11 15 -17 12 -5 -3
-11 4 -11 17 -1 13 -3 34 -5 48 -1 14 0 41 3 60 6 33 7 33 16 12 6 -12 16 -22
24 -22 7 0 14 -4 14 -10 1 -5 2 -15 3 -21 1 -14 36 -28 52 -22 5 2 20 -16 32
-39 13 -24 28 -52 35 -63 7 -11 12 -21 13 -23 1 -1 9 0 18 4 9 3 13 11 9 17
-3 6 -1 7 6 3 6 -4 19 0 28 10 16 15 16 17 0 29 -10 7 -17 26 -17 47 0 45 9
48 155 48 61 0 128 5 149 11 37 10 41 9 59 -15 26 -36 32 -33 32 19 -1 53 -16
75 -40 55 -13 -11 -26 -10 -75 5 -35 11 -73 16 -94 12 -30 -5 -139 13 -151 25
-11 11 10 47 33 59 15 8 33 20 41 27 9 9 25 12 43 8 29 -6 30 -3 31 54 0 12
12 16 50 15 28 0 52 5 54 11 6 18 -38 24 -60 9 -18 -13 -22 -12 -34 5 -17 24
-39 26 -47 5 -3 -8 -14 -15 -25 -15 -27 0 -45 62 -31 110 6 20 7 82 4 146 l-6
112 28 16 c19 10 23 15 12 16 -9 0 -24 16 -34 35 -9 19 -20 35 -25 35 -4 0
-20 11 -35 25 -14 13 -29 24 -33 23 -3 -1 -24 6 -46 16 -43 19 -123 28 -131
14 -3 -4 -17 -8 -31 -8 -15 0 -23 3 -20 7 4 3 0 17 -8 29 -9 13 -11 25 -5 29
5 3 7 12 3 20 -3 8 0 15 7 15 6 0 8 4 5 10 -7 12 -17 95 -18 159 -1 31 4 47
17 57 11 7 22 11 26 9 5 -3 10 2 13 10 8 20 82 65 107 65 11 0 20 4 20 9 0 5
13 12 30 16 16 4 33 11 36 17 4 6 -1 8 -15 3 -11 -3 -39 -8 -60 -10 -22 -2
-49 -9 -61 -15 -38 -20 -34 -2 4 21 45 26 41 37 -6 13 -30 -15 -32 -15 -19 -1
11 14 11 17 0 17 -8 1 -1 8 14 16 37 20 30 26 -14 14 -50 -15 -68 -12 -39 6
25 15 25 15 -10 9 -31 -4 -33 -4 -12 7 12 6 22 17 22 25 0 8 5 11 12 7 6 -4 8
-3 5 3 -4 6 -19 8 -34 6 l-28 -4 25 15 c14 8 32 15 41 16 8 0 26 12 40 26 13
15 43 35 66 46 29 13 40 23 37 33 -4 8 -14 15 -23 15 -10 1 -5 7 14 17 18 10
49 15 80 14 46 -1 48 0 30 13 -28 21 -53 19 -108 -10z m-187 -261 c0 -3 -6 -3
-12 0 -7 2 -19 -3 -26 -12 -11 -14 -12 -13 -2 6 6 14 16 20 25 17 8 -4 15 -8
15 -11z m178 -591 c2 -7 10 -12 17 -12 7 0 15 -7 18 -14 4 -11 1 -13 -11 -9
-16 6 -16 5 1 -14 26 -30 21 -33 -23 -12 -21 10 -58 19 -82 19 -43 1 -43 1
-18 16 l25 15 -33 -5 c-30 -5 -32 -4 -21 15 10 19 18 21 67 17 31 -3 58 -10
60 -16z m-248 -72 c0 -5 -2 -10 -4 -10 -3 0 -8 5 -11 10 -3 6 -1 10 4 10 6 0
11 -4 11 -10z m274 -35 c15 -23 23 -55 10 -43 -3 4 -22 -5 -42 -19 -31 -21
-46 -24 -90 -21 -61 5 -73 14 -61 46 7 19 16 22 63 22 64 0 86 7 86 26 0 22
16 17 34 -11z m-304 -70 c-7 -8 -16 -12 -21 -9 -13 8 -1 24 18 24 13 0 13 -3
3 -15z m39 -36 c27 -16 32 -17 28 -5 -8 19 2 20 25 2 16 -12 73 -15 94 -5 5 3
20 4 34 4 14 0 28 4 31 8 3 5 14 1 23 -9 16 -16 16 -18 -6 -43 -12 -14 -16
-20 -8 -13 25 22 36 14 34 -23 -4 -45 -10 -55 -36 -55 -12 0 -18 -3 -15 -6 7
-7 -23 -64 -34 -64 -7 0 -22 -39 -20 -52 1 -5 -4 -8 -9 -8 -5 0 -10 -7 -10
-15 0 -12 -5 -13 -27 -5 l-28 10 24 -20 c15 -13 18 -20 9 -20 -18 0 -38 20
-38 37 0 7 7 13 16 13 8 0 12 5 9 10 -3 6 -14 10 -24 10 -20 0 -47 43 -37 59
4 6 3 11 -3 11 -6 0 -8 13 -4 33 6 29 5 31 -10 18 -13 -10 -20 -11 -30 -2 -8
6 -16 8 -19 5 -3 -3 -5 3 -4 13 0 10 -4 17 -10 16 -8 -2 -11 16 -9 55 1 31 3
58 4 60 3 6 19 0 50 -19z m462 -470 c54 1 69 -1 69 -12 0 -18 -60 -28 -120
-21 -25 3 -46 7 -49 9 -8 9 10 36 20 29 6 -4 42 -6 80 -5z m-366 -9 c3 -5 2
-10 -4 -10 -5 0 -13 5 -16 10 -3 6 -2 10 4 10 5 0 13 -4 16 -10z m250 -10 c3
-5 1 -10 -4 -10 -6 0 -11 5 -11 10 0 6 2 10 4 10 3 0 8 -4 11 -10z m20 -898
c-18 -15 -85 -54 -85 -48 0 3 19 16 43 30 43 26 59 33 42 18z m87 -28 c-29 -7
-66 -21 -83 -30 -17 -8 -28 -11 -25 -5 8 12 60 37 91 44 50 11 64 4 17 -9z
m109 -16 c36 -20 59 -48 40 -48 -9 0 -24 -39 -21 -55 1 -5 -9 -1 -21 10 l-23
20 17 -25 c9 -13 17 -34 17 -45 -1 -20 -1 -20 -17 0 -14 18 -15 18 -9 1 4 -13
2 -17 -8 -13 -8 3 -17 0 -20 -8 -3 -10 0 -12 12 -8 13 5 15 3 5 -7 -6 -7 -19
-10 -28 -6 -15 5 -15 9 -4 23 8 9 9 14 3 10 -7 -4 -15 0 -18 9 -4 10 -2 13 7
8 6 -4 4 2 -6 13 -16 19 -16 21 -2 27 9 3 21 4 26 0 5 -3 9 -1 9 5 0 5 -16 19
-35 31 -35 22 -46 40 -23 40 6 0 21 -8 32 -17 20 -17 20 -17 7 0 -7 9 -12 17
-10 18 2 0 15 3 28 5 36 7 39 14 5 14 -16 0 -57 -9 -91 -19 -35 -11 -63 -17
-63 -15 0 8 48 28 95 39 27 7 52 13 54 14 2 1 21 -9 42 -21z m-75 -86 c-4 -3
-14 2 -24 12 -16 18 -16 18 6 6 13 -6 21 -14 18 -18z m-195 -59 c13 -16 12
-17 -3 -4 -17 13 -22 21 -14 21 2 0 10 -8 17 -17z m254 -52 c-12 -10 -75 -32
-75 -25 0 6 60 33 75 34 6 0 6 -3 0 -9z m-5 -40 c-8 -5 -26 -12 -40 -15 -24
-7 -24 -6 -6 8 11 9 29 16 40 16 17 -1 18 -2 6 -9z m0 -30 c0 -10 -24 -21 -43
-21 -7 0 -3 7 7 15 22 17 36 19 36 6z m-1 -63 c18 -29 25 -94 8 -75 -7 7 -28
31 -47 52 l-35 38 33 -22 c17 -12 32 -27 32 -32 0 -5 5 -9 10 -9 17 0 11 20
-15 45 -13 14 -19 25 -12 25 7 0 18 -10 26 -22z m-9 -92 c0 -5 -13 3 -30 19
-16 16 -30 30 -30 32 0 2 14 -6 30 -19 17 -12 30 -26 30 -32z"/>
<path d="M1440 2900 c0 -5 7 -7 15 -4 8 4 15 8 15 10 0 2 -7 4 -15 4 -8 0 -15
-4 -15 -10z"/>
<path d="M1754 2866 c11 -9 24 -16 30 -16 12 0 7 5 -24 19 -24 11 -24 11 -6
-3z"/>
<path d="M1864 2849 c2 -8 6 -22 11 -31 4 -10 5 -25 1 -33 -3 -8 -1 -15 4 -15
19 0 15 58 -5 79 -12 12 -13 12 -11 0z"/>
<path d="M1800 2846 c0 -2 7 -7 16 -10 8 -3 12 -2 9 4 -6 10 -25 14 -25 6z"/>
<path d="M1908 2806 c2 -25 9 -46 14 -46 6 0 8 -7 5 -14 -4 -10 -1 -13 9 -9 7
3 14 9 14 13 0 5 3 16 7 26 4 12 3 15 -5 10 -7 -4 -12 -1 -12 7 0 8 -8 25 -18
37 -17 21 -17 21 -14 -24z"/>
<path d="M1997 2758 c-6 -4 -15 -4 -20 -1 -5 3 -4 -4 2 -16 13 -24 26 -29 17
-6 -3 8 -1 15 4 15 16 0 21 -19 10 -42 -10 -21 -10 -21 3 -6 8 10 17 15 21 11
4 -4 19 -8 34 -10 24 -3 25 -2 9 8 -13 8 -17 18 -13 35 6 21 3 23 -25 21 -17
-1 -36 -5 -42 -9z m53 -18 c0 -5 -4 -10 -9 -10 -6 0 -13 5 -16 10 -3 6 1 10 9
10 9 0 16 -4 16 -10z"/>
<path d="M2087 2759 c7 -7 15 -10 18 -7 3 3 -2 9 -12 12 -14 6 -15 5 -6 -5z"/>
<path d="M2070 2729 c0 -5 8 -9 18 -9 10 0 24 -6 31 -12 11 -11 13 -10 9 1 -5
17 -58 35 -58 20z"/>
<path d="M2050 2680 c0 -6 7 -10 15 -10 8 0 15 2 15 4 0 2 -7 6 -15 10 -8 3
-15 1 -15 -4z"/>
<path d="M2054 2653 c-15 -5 7 -51 38 -80 16 -15 29 -18 43 -13 19 7 18 9 -7
19 -16 6 -28 15 -28 21 0 5 -6 9 -12 8 -7 -2 -13 7 -13 19 -1 26 -6 32 -21 26z"/>
<path d="M1506 2641 c-4 -5 3 -7 14 -4 23 6 26 13 6 13 -8 0 -17 -4 -20 -9z"/>
<path d="M2080 2631 c0 -5 9 -13 20 -16 11 -4 18 -10 16 -14 -3 -4 2 -8 10 -8
11 0 9 6 -8 24 -22 24 -38 30 -38 14z"/>
<path d="M2122 2524 c2 -8 6 -15 11 -15 4 1 21 1 39 1 39 0 26 15 -20 24 -27
5 -33 3 -30 -10z"/>
<path d="M2140 2493 c0 -17 16 -32 43 -38 25 -7 27 -6 19 16 -6 16 -19 25 -36
27 -14 2 -26 0 -26 -5z"/>
<path d="M1846 2184 c-9 -8 -16 -20 -16 -25 0 -11 49 22 50 34 0 12 -18 8 -34
-9z"/>
<path d="M1883 2166 l-28 -10 25 -7 c25 -7 25 -7 2 -8 -13 -1 -33 -6 -45 -13
-12 -7 -28 -13 -35 -14 -20 -4 -81 -47 -87 -62 -7 -19 13 -52 30 -52 8 0 15 5
15 12 0 6 3 9 6 6 3 -4 0 -16 -6 -28 -10 -18 -8 -25 9 -41 22 -21 36 -25 25
-8 -4 8 13 9 60 4 55 -6 70 -5 85 9 13 12 21 14 26 7 7 -12 45 -15 45 -3 0 29
-169 87 -178 61 -2 -5 -8 -9 -14 -9 -6 0 -8 6 -5 13 3 9 -3 13 -16 13 -27 -1
-35 31 -12 48 12 9 32 10 74 3 96 -15 100 -16 136 -48 34 -30 45 -26 25 10
-10 20 -76 50 -113 52 -16 1 -17 3 -5 6 9 2 15 10 12 17 -3 9 4 12 28 9 22 -3
29 -1 20 5 -7 5 -10 16 -7 24 7 18 -25 20 -72 4z m-43 -196 c0 -5 -4 -10 -10
-10 -5 0 -10 5 -10 10 0 6 5 10 10 10 6 0 10 -4 10 -10z"/>
<path d="M2000 2130 c0 -5 5 -10 11 -10 5 0 7 5 4 10 -3 6 -8 10 -11 10 -2 0
-4 -4 -4 -10z"/>
<path d="M2240 2036 c0 -25 -16 -36 -55 -36 -13 0 -26 -4 -30 -10 -3 -5 -12
-7 -20 -3 -8 3 -15 0 -15 -5 0 -6 -10 -13 -22 -15 -16 -3 -13 -5 10 -6 18 0
40 6 48 14 23 22 81 19 96 -5 29 -46 51 -12 35 53 -7 26 -15 37 -28 37 -13 0
-19 -7 -19 -24z"/>
<path d="M1695 2010 c3 -5 8 -10 11 -10 2 0 4 5 4 10 0 6 -5 10 -11 10 -5 0
-7 -4 -4 -10z"/>
<path d="M1800 1900 c33 -26 113 -53 142 -48 21 4 20 5 -7 12 -16 4 -59 18
-95 31 -58 22 -62 22 -40 5z"/>
<path d="M2300 1895 c-14 -16 -5 -54 9 -39 14 15 23 54 13 54 -5 0 -15 -7 -22
-15z"/>
<path d="M1829 1653 c12 -24 31 -39 31 -25 0 5 -10 17 -21 28 -22 19 -22 19
-10 -3z"/>
<path d="M2188 1443 c7 -3 16 -2 19 1 4 3 -2 6 -13 5 -11 0 -14 -3 -6 -6z"/>
<path d="M1276 1292 c-4 -13 -5 -26 -2 -29 10 -11 18 4 14 29 l-4 23 -8 -23z"/>
<path d="M1501 1286 c12 -10 59 -15 59 -6 0 5 -14 10 -32 10 -17 0 -29 -2 -27
-4z"/>
<path d="M2075 1219 c-9 -17 -15 -33 -13 -35 3 -2 12 12 21 31 21 43 13 47 -8
4z"/>
<path d="M1410 1120 c0 -6 -4 -8 -10 -5 -5 3 -10 -1 -10 -11 0 -14 2 -15 18
-3 9 7 18 14 20 15 2 1 -1 5 -7 9 -6 3 -11 1 -11 -5z"/>
<path d="M2066 985 c3 -38 9 -100 15 -137 12 -86 11 -361 -1 -457 -6 -41 -8
-77 -5 -79 6 -6 22 37 40 103 l14 50 0 -70 c1 -38 -8 -113 -19 -165 -20 -96
-25 -167 -14 -207 l6 -23 449 0 449 0 -2 261 -3 262 -150 69 c-82 39 -204 96
-270 128 -67 32 -163 72 -215 90 -109 37 -186 89 -233 157 -67 97 -68 97 -61
18z m51 -947 c-3 -8 -6 -5 -6 6 -1 11 2 17 5 13 3 -3 4 -12 1 -19z"/>
<path d="M1765 820 c-3 -6 1 -7 9 -4 18 7 21 14 7 14 -6 0 -13 -4 -16 -10z"/>
<path d="M1260 16 c0 -9 5 -16 10 -16 6 0 10 4 10 9 0 6 -4 13 -10 16 -5 3
-10 -1 -10 -9z"/>
</g>
</svg>
