<svg width="107" height="74" viewBox="0 0 107 74" fill="none" xmlns="http://www.w3.org/2000/svg">
<path d="M0 36.9905C8.57661e-07 27.18 3.89721 17.7713 10.8343 10.8343C17.7713 3.8972 27.18 -1.16989e-07 36.9905 0V14.7962C31.1042 14.7962 25.459 17.1345 21.2968 21.2968C17.1345 25.459 14.7962 31.1042 14.7962 36.9905H0Z" fill="#E5C580"/>
<path d="M36.0474 0.0125226C43.5334 -0.182256 50.9022 1.89962 57.1795 5.98289C63.4568 10.0662 68.3469 15.9585 71.2033 22.8808C74.0598 29.8031 74.7479 37.4293 73.1768 44.7512C71.6057 52.073 67.8494 58.7456 62.4044 63.8866C56.9595 69.0276 50.0824 72.395 42.6825 73.5434C35.2826 74.6919 27.7084 73.5674 20.9614 70.3185C14.2144 67.0697 8.61228 61.8495 4.89586 55.3483C1.17944 48.8471 -0.476265 41.371 0.147657 33.9086L14.8924 35.1413C14.5181 39.6188 15.5115 44.1045 17.7413 48.0052C19.9712 51.9059 23.3324 55.038 27.3807 56.9873C31.4289 58.9366 35.9734 59.6113 40.4133 58.9223C44.8533 58.2332 48.9795 56.2128 52.2465 53.1282C55.5135 50.0435 57.7673 46.04 58.7099 41.6469C59.6526 37.2538 59.2397 32.6781 57.5258 28.5247C55.812 24.3713 52.8779 20.8359 49.1115 18.3859C45.3451 15.936 40.9239 14.6869 36.4323 14.8037L36.0474 0.0125226Z" fill="#DBB052"/>
<g filter="url(#filter0_d_411_225)">
<rect x="51" y="30" width="50" height="13" rx="1.26352" fill="white"/>
</g>
<g filter="url(#filter1_d_411_225)">
<rect x="54" y="33.002" width="7" height="7" rx="1" fill="#DBB052"/>
</g>
<path d="M63.168 39.002L64.746 34.622H65.742L67.368 39.002H66.762L65.292 35.006L65.58 35.15H64.872L65.178 35.006L63.756 39.002H63.168ZM64.11 37.694L64.308 37.166H66.198L66.396 37.694H64.11ZM69.426 39.11C69.15 39.11 68.91 39.062 68.706 38.966C68.506 38.87 68.34 38.742 68.208 38.582C68.076 38.418 67.976 38.238 67.908 38.042C67.844 37.846 67.812 37.65 67.812 37.454V37.346C67.812 37.142 67.844 36.942 67.908 36.746C67.976 36.55 68.076 36.374 68.208 36.218C68.344 36.058 68.512 35.93 68.712 35.834C68.912 35.738 69.146 35.69 69.414 35.69C69.682 35.69 69.922 35.74 70.134 35.84C70.35 35.94 70.522 36.082 70.65 36.266C70.782 36.446 70.856 36.66 70.872 36.908H70.32C70.292 36.708 70.2 36.542 70.044 36.41C69.888 36.274 69.678 36.206 69.414 36.206C69.186 36.206 68.996 36.258 68.844 36.362C68.692 36.466 68.578 36.608 68.502 36.788C68.426 36.968 68.388 37.172 68.388 37.4C68.388 37.62 68.426 37.822 68.502 38.006C68.578 38.186 68.692 38.33 68.844 38.438C69 38.542 69.194 38.594 69.426 38.594C69.606 38.594 69.762 38.562 69.894 38.498C70.026 38.434 70.132 38.348 70.212 38.24C70.292 38.132 70.34 38.01 70.356 37.874H70.908C70.896 38.126 70.822 38.344 70.686 38.528C70.554 38.712 70.378 38.856 70.158 38.96C69.942 39.06 69.698 39.11 69.426 39.11ZM72.9387 39.038C72.6987 39.038 72.4907 39.004 72.3147 38.936C72.1427 38.868 72.0087 38.752 71.9127 38.588C71.8207 38.42 71.7747 38.194 71.7747 37.91V34.826H72.3267V37.982C72.3267 38.154 72.3727 38.288 72.4647 38.384C72.5607 38.476 72.6947 38.522 72.8667 38.522H73.4307V39.038H72.9387ZM71.2227 36.23V35.798H73.4307V36.23H71.2227ZM74.4014 39.002V35.798H74.9774V39.002H74.4014ZM73.9094 36.254V35.798H74.9774V36.254H73.9094ZM74.5634 35.282C74.4354 35.282 74.3394 35.248 74.2754 35.18C74.2154 35.112 74.1854 35.026 74.1854 34.922C74.1854 34.818 74.2154 34.732 74.2754 34.664C74.3394 34.596 74.4354 34.562 74.5634 34.562C74.6914 34.562 74.7854 34.596 74.8454 34.664C74.9094 34.732 74.9414 34.818 74.9414 34.922C74.9414 35.026 74.9094 35.112 74.8454 35.18C74.7854 35.248 74.6914 35.282 74.5634 35.282ZM76.7751 39.002L75.6831 35.798H76.2831L77.3511 39.002H76.7751ZM76.9191 39.002V38.546H77.6151V39.002H76.9191ZM77.1951 39.002L78.1251 35.798H78.6891L77.7411 39.002H77.1951ZM80.746 39.11C80.466 39.11 80.224 39.062 80.02 38.966C79.816 38.87 79.65 38.744 79.522 38.588C79.394 38.428 79.298 38.25 79.234 38.054C79.174 37.858 79.144 37.658 79.144 37.454V37.346C79.144 37.138 79.174 36.936 79.234 36.74C79.298 36.544 79.394 36.368 79.522 36.212C79.65 36.052 79.812 35.926 80.008 35.834C80.208 35.738 80.442 35.69 80.71 35.69C81.058 35.69 81.344 35.766 81.568 35.918C81.796 36.066 81.964 36.258 82.072 36.494C82.184 36.73 82.24 36.982 82.24 37.25V37.508H79.396V37.076H81.82L81.688 37.31C81.688 37.082 81.652 36.886 81.58 36.722C81.508 36.554 81.4 36.424 81.256 36.332C81.112 36.24 80.93 36.194 80.71 36.194C80.482 36.194 80.292 36.246 80.14 36.35C79.992 36.454 79.88 36.596 79.804 36.776C79.732 36.956 79.696 37.164 79.696 37.4C79.696 37.628 79.732 37.834 79.804 38.018C79.88 38.198 79.996 38.342 80.152 38.45C80.308 38.554 80.506 38.606 80.746 38.606C80.998 38.606 81.202 38.55 81.358 38.438C81.518 38.326 81.614 38.196 81.646 38.048H82.186C82.142 38.268 82.054 38.458 81.922 38.618C81.79 38.778 81.624 38.9 81.424 38.984C81.224 39.068 80.998 39.11 80.746 39.11ZM84.7351 39.002L86.5891 35.168L86.5531 35.114H84.1591V34.622H87.0991V35.318L85.3351 39.002H84.7351ZM84.1591 35.81V34.622H84.6391V35.81H84.1591ZM89.2244 39.11C88.9124 39.11 88.6344 39.054 88.3904 38.942C88.1504 38.83 87.9604 38.674 87.8204 38.474C87.6844 38.274 87.6164 38.042 87.6164 37.778C87.6164 37.602 87.6504 37.444 87.7184 37.304C87.7864 37.16 87.8804 37.036 88.0004 36.932C88.1204 36.828 88.2564 36.748 88.4084 36.692V36.632C88.2884 36.58 88.1784 36.51 88.0784 36.422C87.9824 36.334 87.9044 36.23 87.8444 36.11C87.7884 35.99 87.7604 35.854 87.7604 35.702C87.7604 35.45 87.8264 35.236 87.9584 35.06C88.0944 34.884 88.2724 34.75 88.4924 34.658C88.7164 34.562 88.9604 34.514 89.2244 34.514C89.4924 34.514 89.7364 34.562 89.9564 34.658C90.1804 34.75 90.3584 34.884 90.4904 35.06C90.6224 35.236 90.6884 35.45 90.6884 35.702C90.6884 35.854 90.6604 35.99 90.6044 36.11C90.5484 36.23 90.4704 36.334 90.3704 36.422C90.2744 36.51 90.1644 36.58 90.0404 36.632V36.692C90.1964 36.748 90.3344 36.83 90.4544 36.938C90.5744 37.042 90.6684 37.166 90.7364 37.31C90.8044 37.45 90.8384 37.606 90.8384 37.778C90.8384 38.042 90.7684 38.274 90.6284 38.474C90.4924 38.674 90.3024 38.83 90.0584 38.942C89.8184 39.054 89.5404 39.11 89.2244 39.11ZM89.2244 38.618C89.4444 38.618 89.6324 38.584 89.7884 38.516C89.9444 38.444 90.0644 38.344 90.1484 38.216C90.2324 38.084 90.2744 37.93 90.2744 37.754C90.2744 37.578 90.2324 37.426 90.1484 37.298C90.0684 37.17 89.9504 37.072 89.7944 37.004C89.6384 36.932 89.4484 36.896 89.2244 36.896C89.0044 36.896 88.8164 36.932 88.6604 37.004C88.5044 37.072 88.3844 37.17 88.3004 37.298C88.2204 37.426 88.1804 37.578 88.1804 37.754C88.1804 37.93 88.2204 38.084 88.3004 38.216C88.3844 38.344 88.5044 38.444 88.6604 38.516C88.8164 38.584 89.0044 38.618 89.2244 38.618ZM89.2244 36.44C89.4964 36.44 89.7144 36.382 89.8784 36.266C90.0424 36.146 90.1244 35.964 90.1244 35.72C90.1244 35.472 90.0404 35.292 89.8724 35.18C89.7084 35.064 89.4924 35.006 89.2244 35.006C88.9564 35.006 88.7384 35.064 88.5704 35.18C88.4064 35.296 88.3244 35.476 88.3244 35.72C88.3244 35.964 88.4064 36.146 88.5704 36.266C88.7384 36.382 88.9564 36.44 89.2244 36.44ZM92.6427 39.002L94.2987 34.622H94.7547L93.0987 39.002H92.6427ZM92.3187 36.974C92.0907 36.974 91.9047 36.922 91.7607 36.818C91.6207 36.714 91.5167 36.576 91.4487 36.404C91.3847 36.232 91.3527 36.046 91.3527 35.846V35.69C91.3527 35.474 91.3867 35.282 91.4547 35.114C91.5227 34.942 91.6287 34.808 91.7727 34.712C91.9167 34.612 92.0987 34.562 92.3187 34.562C92.5427 34.562 92.7247 34.612 92.8647 34.712C93.0087 34.808 93.1147 34.942 93.1827 35.114C93.2507 35.282 93.2847 35.474 93.2847 35.69V35.846C93.2847 36.046 93.2507 36.232 93.1827 36.404C93.1187 36.576 93.0167 36.714 92.8767 36.818C92.7367 36.922 92.5507 36.974 92.3187 36.974ZM92.3187 36.578C92.5027 36.578 92.6387 36.512 92.7267 36.38C92.8187 36.244 92.8647 36.042 92.8647 35.774C92.8647 35.49 92.8187 35.284 92.7267 35.156C92.6347 35.024 92.4987 34.958 92.3187 34.958C92.1387 34.958 92.0027 35.024 91.9107 35.156C91.8187 35.284 91.7727 35.488 91.7727 35.768C91.7727 36.036 91.8167 36.238 91.9047 36.374C91.9967 36.51 92.1347 36.578 92.3187 36.578ZM95.0547 39.062C94.8267 39.062 94.6407 39.01 94.4967 38.906C94.3567 38.802 94.2527 38.664 94.1847 38.492C94.1207 38.32 94.0887 38.134 94.0887 37.934V37.778C94.0887 37.562 94.1227 37.37 94.1907 37.202C94.2587 37.03 94.3647 36.896 94.5087 36.8C94.6527 36.7 94.8347 36.65 95.0547 36.65C95.2787 36.65 95.4607 36.7 95.6007 36.8C95.7447 36.896 95.8507 37.03 95.9187 37.202C95.9867 37.37 96.0207 37.562 96.0207 37.778V37.934C96.0207 38.134 95.9867 38.32 95.9187 38.492C95.8547 38.664 95.7527 38.802 95.6127 38.906C95.4727 39.01 95.2867 39.062 95.0547 39.062ZM95.0547 38.666C95.2387 38.666 95.3747 38.6 95.4627 38.468C95.5547 38.332 95.6007 38.13 95.6007 37.862C95.6007 37.578 95.5547 37.372 95.4627 37.244C95.3707 37.112 95.2347 37.046 95.0547 37.046C94.8747 37.046 94.7387 37.112 94.6467 37.244C94.5547 37.372 94.5087 37.576 94.5087 37.856C94.5087 38.124 94.5527 38.326 94.6407 38.462C94.7327 38.598 94.8707 38.666 95.0547 38.666Z" fill="#1A1E23"/>
<defs>
<filter id="filter0_d_411_225" x="45.9459" y="26.6306" width="60.1082" height="23.1082" filterUnits="userSpaceOnUse" color-interpolation-filters="sRGB">
<feFlood flood-opacity="0" result="BackgroundImageFix"/>
<feColorMatrix in="SourceAlpha" type="matrix" values="0 0 0 0 0 0 0 0 0 0 0 0 0 0 0 0 0 0 127 0" result="hardAlpha"/>
<feOffset dy="1.68469"/>
<feGaussianBlur stdDeviation="2.52704"/>
<feComposite in2="hardAlpha" operator="out"/>
<feColorMatrix type="matrix" values="0 0 0 0 0.429167 0 0 0 0 0.429167 0 0 0 0 0.429167 0 0 0 0.15 0"/>
<feBlend mode="normal" in2="BackgroundImageFix" result="effect1_dropShadow_411_225"/>
<feBlend mode="normal" in="SourceGraphic" in2="effect1_dropShadow_411_225" result="shape"/>
</filter>
<filter id="filter1_d_411_225" x="48.9459" y="29.6327" width="17.1082" height="17.1082" filterUnits="userSpaceOnUse" color-interpolation-filters="sRGB">
<feFlood flood-opacity="0" result="BackgroundImageFix"/>
<feColorMatrix in="SourceAlpha" type="matrix" values="0 0 0 0 0 0 0 0 0 0 0 0 0 0 0 0 0 0 127 0" result="hardAlpha"/>
<feOffset dy="1.68469"/>
<feGaussianBlur stdDeviation="2.52704"/>
<feComposite in2="hardAlpha" operator="out"/>
<feColorMatrix type="matrix" values="0 0 0 0 0.429167 0 0 0 0 0.429167 0 0 0 0 0.429167 0 0 0 0.15 0"/>
<feBlend mode="normal" in2="BackgroundImageFix" result="effect1_dropShadow_411_225"/>
<feBlend mode="normal" in="SourceGraphic" in2="effect1_dropShadow_411_225" result="shape"/>
</filter>
</defs>
</svg>
