<svg width="700" height="359" viewBox="0 0 700 359" fill="none" xmlns="http://www.w3.org/2000/svg">
<rect x="0.5" y="0.5" width="699" height="358" rx="4.5" fill="#212632" stroke="#2A303E"/>
<line x1="42.0308" y1="55.754" x2="42.0307" y2="320.311" stroke="#2A303E"/>
<line x1="70.4563" y1="55.754" x2="70.4563" y2="320.311" stroke="#2A303E"/>
<line x1="98.8818" y1="55.754" x2="98.8818" y2="320.311" stroke="#2A303E"/>
<line x1="127.308" y1="55.754" x2="127.308" y2="320.311" stroke="#2A303E"/>
<line x1="155.733" y1="55.754" x2="155.733" y2="320.311" stroke="#2A303E"/>
<line x1="184.159" y1="55.754" x2="184.159" y2="320.311" stroke="#2A303E"/>
<line x1="212.584" y1="55.754" x2="212.584" y2="320.311" stroke="#2A303E"/>
<line x1="241.01" y1="55.754" x2="241.01" y2="320.311" stroke="#2A303E"/>
<line x1="269.436" y1="55.754" x2="269.436" y2="320.311" stroke="#2A303E"/>
<line x1="297.861" y1="55.754" x2="297.861" y2="320.311" stroke="#2A303E"/>
<line x1="326.287" y1="55.754" x2="326.287" y2="320.311" stroke="#2A303E"/>
<line x1="354.713" y1="55.754" x2="354.713" y2="320.311" stroke="#2A303E"/>
<line x1="383.139" y1="55.754" x2="383.139" y2="320.311" stroke="#2A303E"/>
<line x1="411.564" y1="55.754" x2="411.564" y2="320.311" stroke="#2A303E"/>
<line x1="439.99" y1="55.754" x2="439.99" y2="320.311" stroke="#2A303E"/>
<line x1="468.416" y1="55.754" x2="468.416" y2="320.311" stroke="#2A303E"/>
<line x1="496.841" y1="55.754" x2="496.841" y2="320.311" stroke="#2A303E"/>
<line x1="525.267" y1="55.754" x2="525.267" y2="320.311" stroke="#2A303E"/>
<line x1="553.692" y1="55.754" x2="553.692" y2="320.311" stroke="#2A303E"/>
<line x1="582.118" y1="55.754" x2="582.118" y2="320.311" stroke="#2A303E"/>
<line x1="610.544" y1="55.754" x2="610.544" y2="320.311" stroke="#2A303E"/>
<line x1="638.969" y1="55.754" x2="638.969" y2="320.311" stroke="#2A303E"/>
<line x1="665.5" y1="55.754" x2="665.5" y2="320.311" stroke="#2A303E"/>
<line x1="665" y1="55.6143" x2="34" y2="55.6143" stroke="#2A303E"/>
<line x1="665" y1="79.0219" x2="34" y2="79.0218" stroke="#2A303E"/>
<line x1="665" y1="102.429" x2="34" y2="102.429" stroke="#2A303E"/>
<line x1="665" y1="125.837" x2="34" y2="125.837" stroke="#2A303E"/>
<line x1="665" y1="149.244" x2="34" y2="149.244" stroke="#2A303E"/>
<line x1="665" y1="172.652" x2="34" y2="172.652" stroke="#2A303E"/>
<line x1="665" y1="196.06" x2="34" y2="196.059" stroke="#2A303E"/>
<line x1="665" y1="219.467" x2="34" y2="219.467" stroke="#2A303E"/>
<line x1="665" y1="242.875" x2="34" y2="242.874" stroke="#2A303E"/>
<line x1="665" y1="266.282" x2="34" y2="266.282" stroke="#2A303E"/>
<line x1="665" y1="289.69" x2="34" y2="289.69" stroke="#2A303E"/>
<line x1="665" y1="313.097" x2="34" y2="313.097" stroke="#2A303E"/>
<rect x="47.4312" y="191.332" width="1.37448" height="13.0834" fill="#06CD9D"/>
<rect x="44.6823" y="204.415" width="6.87238" height="57.8076" fill="#06CD9D"/>
<rect x="47.4312" y="262.223" width="1.37448" height="12.9637" fill="#06CD9D"/>
<rect x="238.244" y="117.096" width="1.37448" height="5.63468" fill="#06CD9D"/>
<rect x="235.495" y="122.73" width="6.87238" height="110.854" fill="#06CD9D"/>
<rect x="238.244" y="233.585" width="1.37448" height="3.99893" fill="#06CD9D"/>
<rect x="492.661" y="111.569" width="1.37448" height="5.63468" fill="#06CD9D"/>
<rect x="489.912" y="117.203" width="6.87238" height="110.854" fill="#06CD9D"/>
<rect x="492.661" y="228.058" width="1.37448" height="3.99893" fill="#06CD9D"/>
<rect x="508.561" y="117.706" width="1.37448" height="5.63468" fill="#06CD9D"/>
<rect x="505.812" y="123.341" width="6.87238" height="110.854" fill="#06CD9D"/>
<rect x="508.561" y="234.195" width="1.37448" height="3.99893" fill="#06CD9D"/>
<rect x="301.848" y="133.28" width="1.37448" height="5.63468" fill="#06CD9D"/>
<rect x="299.099" y="138.915" width="6.87238" height="86.2773" fill="#06CD9D"/>
<rect x="301.848" y="225.193" width="1.37448" height="3.99893" fill="#06CD9D"/>
<rect x="317.749" y="113.923" width="1.37448" height="5.63468" fill="#06CD9D"/>
<rect x="315" y="119.557" width="6.87238" height="86.2773" fill="#06CD9D"/>
<rect x="317.749" y="205.835" width="1.37448" height="3.99893" fill="#06CD9D"/>
<rect x="206.441" y="217.802" width="1.37448" height="13.0834" fill="#06CD9D"/>
<rect x="203.693" y="230.885" width="6.87238" height="57.8749" fill="#06CD9D"/>
<rect x="206.441" y="288.76" width="1.37448" height="12.9637" fill="#06CD9D"/>
<rect x="222.343" y="172.244" width="1.37448" height="13.0834" fill="#06CD9D"/>
<rect x="219.594" y="185.328" width="6.87238" height="57.8749" fill="#06CD9D"/>
<rect x="222.343" y="243.203" width="1.37448" height="12.9637" fill="#06CD9D"/>
<rect x="63.332" y="194.592" width="1.37448" height="13.0834" fill="#06CD9D"/>
<rect x="60.5831" y="207.676" width="6.87238" height="9.32001" fill="#06CD9D"/>
<rect x="63.332" y="216.996" width="1.37448" height="12.9637" fill="#06CD9D"/>
<rect x="95.1342" y="292.133" width="1.37448" height="5.29745" fill="#06CD9D"/>
<rect x="92.3853" y="297.431" width="6.87238" height="9.96877" fill="#06CD9D"/>
<rect x="95.1342" y="307.4" width="1.37448" height="5.11485" fill="#06CD9D"/>
<rect x="381.353" y="224.857" width="1.37448" height="5.29745" fill="#06CD9D"/>
<rect x="378.604" y="230.155" width="6.87238" height="9.96877" fill="#06CD9D"/>
<rect x="381.353" y="240.123" width="1.37448" height="5.11485" fill="#06CD9D"/>
<rect x="111.035" y="287.671" width="1.37448" height="5.29745" fill="#06CD9D"/>
<rect x="108.286" y="292.968" width="6.87238" height="9.96877" fill="#06CD9D"/>
<rect x="111.035" y="302.937" width="1.37448" height="5.11485" fill="#06CD9D"/>
<rect x="397.254" y="220.396" width="1.37448" height="5.29745" fill="#06CD9D"/>
<rect x="394.505" y="225.693" width="6.87238" height="9.96877" fill="#06CD9D"/>
<rect x="397.254" y="235.662" width="1.37448" height="5.11485" fill="#06CD9D"/>
<rect x="126.937" y="284.253" width="1.37448" height="5.29745" fill="#06CD9D"/>
<rect x="124.188" y="289.551" width="6.87238" height="9.96877" fill="#06CD9D"/>
<rect x="126.937" y="299.519" width="1.37448" height="5.11485" fill="#06CD9D"/>
<rect x="413.155" y="216.977" width="1.37448" height="5.29745" fill="#06CD9D"/>
<rect x="410.406" y="222.274" width="6.87238" height="9.96877" fill="#06CD9D"/>
<rect x="413.155" y="232.243" width="1.37448" height="5.11485" fill="#06CD9D"/>
<rect x="142.838" y="281.481" width="1.37448" height="5.29745" fill="#06CD9D"/>
<rect x="140.089" y="286.778" width="6.87238" height="9.96877" fill="#06CD9D"/>
<rect x="142.838" y="296.747" width="1.37448" height="5.11485" fill="#06CD9D"/>
<rect x="429.056" y="214.206" width="1.37448" height="5.29745" fill="#06CD9D"/>
<rect x="426.307" y="219.503" width="6.87238" height="9.96877" fill="#06CD9D"/>
<rect x="429.056" y="229.472" width="1.37448" height="5.11485" fill="#06CD9D"/>
<rect x="174.64" y="281.181" width="1.37448" height="5.29745" fill="#06CD9D"/>
<rect x="171.891" y="286.478" width="6.87238" height="9.96877" fill="#06CD9D"/>
<rect x="174.64" y="296.447" width="1.37448" height="5.11485" fill="#06CD9D"/>
<rect x="333.65" y="123.09" width="1.37448" height="5.29745" fill="#06CD9D"/>
<rect x="330.901" y="128.388" width="6.87238" height="9.96877" fill="#06CD9D"/>
<rect x="333.65" y="138.356" width="1.37448" height="5.11485" fill="#06CD9D"/>
<rect x="349.551" y="131.05" width="1.37448" height="5.29745" fill="#06CD9D"/>
<rect x="346.802" y="136.347" width="6.87238" height="9.96877" fill="#06CD9D"/>
<rect x="349.551" y="146.316" width="1.37448" height="5.11485" fill="#06CD9D"/>
<rect x="190.541" y="283.792" width="1.37448" height="5.29745" fill="#06CD9D"/>
<rect x="187.792" y="289.089" width="6.87238" height="9.96877" fill="#06CD9D"/>
<rect x="190.541" y="299.058" width="1.37448" height="5.11485" fill="#06CD9D"/>
<rect x="158.738" y="257.366" width="1.37448" height="5.29745" fill="#06CD9D"/>
<rect x="155.989" y="262.663" width="6.87238" height="29.151" fill="#06CD9D"/>
<rect x="158.738" y="291.814" width="1.37448" height="5.11485" fill="#06CD9D"/>
<rect x="444.957" y="192.494" width="1.37448" height="5.29745" fill="#06CD9D"/>
<rect x="442.208" y="197.791" width="6.87238" height="29.151" fill="#06CD9D"/>
<rect x="444.957" y="226.942" width="1.37448" height="5.11485" fill="#06CD9D"/>
<rect x="460.858" y="172.792" width="1.37448" height="5.29745" fill="#06CD9D"/>
<rect x="458.109" y="178.089" width="6.87238" height="29.151" fill="#06CD9D"/>
<rect x="460.858" y="207.24" width="1.37448" height="5.11485" fill="#06CD9D"/>
<rect x="572.166" y="231.214" width="1.37448" height="5.29745" fill="#06CD9D"/>
<rect x="569.417" y="236.512" width="6.87238" height="29.151" fill="#06CD9D"/>
<rect x="572.166" y="265.663" width="1.37448" height="5.11485" fill="#06CD9D"/>
<rect x="588.067" y="200.929" width="1.37448" height="5.29745" fill="#06CD9D"/>
<rect x="585.318" y="206.226" width="6.87238" height="29.151" fill="#06CD9D"/>
<rect x="588.067" y="235.377" width="1.37448" height="5.11485" fill="#06CD9D"/>
<rect x="603.968" y="184.155" width="1.37448" height="5.29745" fill="#06CD9D"/>
<rect x="601.219" y="189.453" width="6.87238" height="29.151" fill="#06CD9D"/>
<rect x="603.968" y="218.604" width="1.37448" height="5.11485" fill="#06CD9D"/>
<rect x="619.869" y="169.27" width="1.37448" height="5.29745" fill="#06CD9D"/>
<rect x="617.12" y="174.567" width="6.87238" height="29.151" fill="#06CD9D"/>
<rect x="619.869" y="203.718" width="1.37448" height="5.11485" fill="#06CD9D"/>
<rect x="651.194" y="169.27" width="1.37448" height="5.29745" fill="#06CD9D"/>
<rect x="648.445" y="174.567" width="6.87238" height="29.151" fill="#06CD9D"/>
<rect x="651.194" y="203.718" width="1.37448" height="5.11485" fill="#06CD9D"/>
<rect x="79.2333" y="197.421" width="1.37448" height="13.0834" fill="#FF5364"/>
<rect x="76.4844" y="210.505" width="6.87238" height="91.4437" fill="#FF5364"/>
<rect x="79.2333" y="301.948" width="1.37448" height="12.9637" fill="#FF5364"/>
<rect x="365.452" y="132.586" width="1.37448" height="13.0834" fill="#FF5364"/>
<rect x="362.703" y="145.67" width="6.87238" height="91.4437" fill="#FF5364"/>
<rect x="365.452" y="237.113" width="1.37448" height="12.9637" fill="#FF5364"/>
<rect x="254.145" y="121.216" width="1.37448" height="4.58669" fill="#FF5364"/>
<rect x="251.396" y="125.803" width="6.87238" height="35.2701" fill="#FF5364"/>
<rect x="254.145" y="161.073" width="1.37448" height="6.30032" fill="#FF5364"/>
<rect x="270.046" y="147.206" width="1.37448" height="4.58669" fill="#FF5364"/>
<rect x="267.297" y="151.792" width="6.87238" height="35.2701" fill="#FF5364"/>
<rect x="270.046" y="187.063" width="1.37448" height="6.30032" fill="#FF5364"/>
<rect x="285.947" y="183.057" width="1.37448" height="4.58669" fill="#FF5364"/>
<rect x="283.198" y="187.643" width="6.87238" height="35.2701" fill="#FF5364"/>
<rect x="285.947" y="222.914" width="1.37448" height="6.30032" fill="#FF5364"/>
<rect x="476.759" y="180.049" width="1.37448" height="4.58669" fill="#FF5364"/>
<rect x="474.01" y="184.635" width="6.87238" height="35.2701" fill="#FF5364"/>
<rect x="476.759" y="219.905" width="1.37448" height="6.30032" fill="#FF5364"/>
<rect x="524.462" y="119.493" width="1.37448" height="4.58669" fill="#FF5364"/>
<rect x="521.713" y="124.079" width="6.87238" height="86.8223" fill="#FF5364"/>
<rect x="524.462" y="210.902" width="1.37448" height="6.30032" fill="#FF5364"/>
<rect x="540.364" y="165.6" width="1.37448" height="4.58669" fill="#FF5364"/>
<rect x="537.615" y="170.187" width="6.87238" height="86.8223" fill="#FF5364"/>
<rect x="540.364" y="257.009" width="1.37448" height="6.30032" fill="#FF5364"/>
<rect x="556.264" y="190.065" width="1.37448" height="14.0684" fill="#FF5364"/>
<rect x="553.515" y="204.134" width="6.87238" height="66.4225" fill="#FF5364"/>
<rect x="556.264" y="270.556" width="1.37448" height="17.2183" fill="#FF5364"/>
<rect x="635.77" y="111.569" width="1.37448" height="14.0684" fill="#FF5364"/>
<rect x="633.021" y="125.637" width="6.87238" height="66.4225" fill="#FF5364"/>
<rect x="635.77" y="192.06" width="1.37448" height="17.2183" fill="#FF5364"/>
<path d="M21.1562 30.266C20.2508 30.266 19.4855 30.1213 18.8602 29.832C18.2442 29.5427 17.7728 29.146 17.4462 28.642C17.1195 28.1287 16.9562 27.55 16.9562 26.906H18.9022C18.9022 27.1767 18.9768 27.4427 19.1262 27.704C19.2755 27.956 19.5135 28.1613 19.8402 28.32C20.1762 28.4787 20.6148 28.558 21.1562 28.558C21.6415 28.558 22.0475 28.488 22.3742 28.348C22.7008 28.208 22.9435 28.026 23.1022 27.802C23.2608 27.5687 23.3402 27.3073 23.3402 27.018C23.3402 26.654 23.1862 26.3647 22.8782 26.15C22.5702 25.926 22.0942 25.786 21.4502 25.73L20.5542 25.66C19.5742 25.576 18.7902 25.2727 18.2022 24.75C17.6235 24.218 17.3342 23.518 17.3342 22.65C17.3342 21.9967 17.4882 21.4367 17.7962 20.97C18.1042 20.494 18.5335 20.13 19.0842 19.878C19.6442 19.6167 20.2975 19.486 21.0442 19.486C21.8188 19.486 22.4862 19.6213 23.0462 19.892C23.6062 20.1627 24.0402 20.5453 24.3482 21.04C24.6562 21.5253 24.8102 22.0993 24.8102 22.762H22.8642C22.8642 22.482 22.7942 22.2253 22.6542 21.992C22.5235 21.7493 22.3228 21.558 22.0522 21.418C21.7908 21.2687 21.4548 21.194 21.0442 21.194C20.6522 21.194 20.3255 21.2593 20.0642 21.39C19.8028 21.5207 19.6068 21.698 19.4762 21.922C19.3455 22.146 19.2802 22.3887 19.2802 22.65C19.2802 22.9673 19.3968 23.2473 19.6302 23.49C19.8635 23.7233 20.2322 23.8587 20.7362 23.896L21.6322 23.98C22.3602 24.036 22.9995 24.19 23.5502 24.442C24.1008 24.694 24.5255 25.0347 24.8242 25.464C25.1322 25.8933 25.2862 26.4113 25.2862 27.018C25.2862 27.662 25.1182 28.2313 24.7822 28.726C24.4462 29.2113 23.9655 29.5893 23.3402 29.86C22.7242 30.1307 21.9962 30.266 21.1562 30.266ZM31.9058 30.266C30.9818 30.266 30.1791 30.1027 29.4978 29.776C28.8258 29.4493 28.2658 29.0247 27.8178 28.502C27.3791 27.97 27.0478 27.4007 26.8238 26.794C26.6091 26.178 26.5018 25.5853 26.5018 25.016V24.708C26.5018 24.0827 26.6138 23.462 26.8378 22.846C27.0618 22.2207 27.3978 21.656 27.8458 21.152C28.3031 20.648 28.8678 20.2467 29.5397 19.948C30.2118 19.64 31.0004 19.486 31.9058 19.486C32.8018 19.486 33.5858 19.64 34.2578 19.948C34.9298 20.2467 35.4898 20.648 35.9378 21.152C36.3951 21.656 36.7358 22.2207 36.9598 22.846C37.1838 23.462 37.2958 24.0827 37.2958 24.708V25.016C37.2958 25.5853 37.1838 26.178 36.9598 26.794C36.7451 27.4007 36.4138 27.97 35.9658 28.502C35.5271 29.0247 34.9671 29.4493 34.2858 29.776C33.6138 30.1027 32.8204 30.266 31.9058 30.266ZM31.9058 28.418C32.4284 28.418 32.8951 28.3247 33.3058 28.138C33.7258 27.9513 34.0804 27.6947 34.3698 27.368C34.6684 27.032 34.8924 26.654 35.0418 26.234C35.2004 25.8047 35.2798 25.352 35.2798 24.876C35.2798 24.3627 35.2004 23.8913 35.0418 23.462C34.8924 23.0327 34.6684 22.6593 34.3698 22.342C34.0804 22.0247 33.7258 21.7773 33.3058 21.6C32.8858 21.4227 32.4191 21.334 31.9058 21.334C31.3831 21.334 30.9118 21.4227 30.4918 21.6C30.0718 21.7773 29.7124 22.0247 29.4138 22.342C29.1244 22.6593 28.9004 23.0327 28.7418 23.462C28.5924 23.8913 28.5178 24.3627 28.5178 24.876C28.5178 25.352 28.5924 25.8047 28.7418 26.234C28.9004 26.654 29.1244 27.032 29.4138 27.368C29.7124 27.6947 30.0718 27.9513 30.4918 28.138C30.9118 28.3247 31.3831 28.418 31.9058 28.418ZM39.217 30V19.78H41.205V30H39.217ZM40.925 30V28.25H45.335V30H40.925ZM46.9833 30V19.78H48.9713V30H46.9833ZM53.2297 30.056V28.208H55.3437C55.8757 28.208 56.3471 28.1287 56.7577 27.97C57.1777 27.802 57.5324 27.5687 57.8217 27.27C58.1111 26.9713 58.3304 26.6213 58.4797 26.22C58.6384 25.8093 58.7177 25.3567 58.7177 24.862C58.7177 24.3487 58.6384 23.8913 58.4797 23.49C58.3304 23.0793 58.1111 22.7293 57.8217 22.44C57.5324 22.1507 57.1777 21.9313 56.7577 21.782C56.3471 21.6327 55.8757 21.558 55.3437 21.558H53.2297V19.71H55.2177C56.1417 19.71 56.9491 19.8453 57.6397 20.116C58.3304 20.3867 58.9044 20.76 59.3617 21.236C59.8191 21.7027 60.1597 22.2393 60.3837 22.846C60.6171 23.4433 60.7337 24.064 60.7337 24.708V25.016C60.7337 25.632 60.6171 26.2387 60.3837 26.836C60.1597 27.4333 59.8191 27.9747 59.3617 28.46C58.9044 28.9453 58.3304 29.3327 57.6397 29.622C56.9491 29.9113 56.1417 30.056 55.2177 30.056H53.2297ZM51.5217 30.056V19.71H53.5097V30.056H51.5217ZM67.8314 30L64.5694 19.78H66.6274L69.3294 28.628L68.7414 28.348H70.2534L69.6514 28.628L72.1434 19.78H74.1314L71.1074 30H67.8314ZM79.8448 30V27.746H79.5228V25.24C79.5228 24.8013 79.4155 24.4747 79.2008 24.26C78.9861 24.0453 78.6548 23.938 78.2068 23.938C77.9735 23.938 77.6935 23.9427 77.3668 23.952C77.0401 23.9613 76.7088 23.9753 76.3728 23.994C76.0461 24.0033 75.7521 24.0173 75.4908 24.036V22.384C75.7055 22.3653 75.9481 22.3467 76.2188 22.328C76.4895 22.3093 76.7648 22.3 77.0448 22.3C77.3341 22.2907 77.6048 22.286 77.8568 22.286C78.6408 22.286 79.2895 22.3887 79.8028 22.594C80.3255 22.7993 80.7175 23.1213 80.9788 23.56C81.2495 23.9987 81.3848 24.5727 81.3848 25.282V30H79.8448ZM77.3948 30.196C76.8441 30.196 76.3588 30.098 75.9388 29.902C75.5281 29.706 75.2061 29.426 74.9728 29.062C74.7488 28.698 74.6368 28.2593 74.6368 27.746C74.6368 27.186 74.7721 26.7287 75.0428 26.374C75.3228 26.0193 75.7101 25.7533 76.2048 25.576C76.7088 25.3987 77.2968 25.31 77.9688 25.31H79.7328V26.472H77.9408C77.4928 26.472 77.1475 26.584 76.9048 26.808C76.6715 27.0227 76.5548 27.3027 76.5548 27.648C76.5548 27.9933 76.6715 28.2733 76.9048 28.488C77.1475 28.7027 77.4928 28.81 77.9408 28.81C78.2115 28.81 78.4588 28.7633 78.6828 28.67C78.9161 28.5673 79.1075 28.3993 79.2568 28.166C79.4155 27.9233 79.5041 27.5967 79.5228 27.186L79.9988 27.732C79.9521 28.264 79.8215 28.712 79.6068 29.076C79.4015 29.44 79.1121 29.72 78.7388 29.916C78.3748 30.1027 77.9268 30.196 77.3948 30.196ZM83.5673 30V19.78H85.5133V30H83.5673ZM82.6153 21.236V19.78H85.5133V21.236H82.6153ZM90.3249 30.238C89.4476 30.238 88.7662 29.9487 88.2809 29.37C87.8049 28.7913 87.5669 27.9327 87.5669 26.794V22.384H89.5129V26.962C89.5129 27.4287 89.6436 27.802 89.9049 28.082C90.1662 28.3527 90.5209 28.488 90.9689 28.488C91.4169 28.488 91.7809 28.3433 92.0609 28.054C92.3502 27.7647 92.4949 27.3727 92.4949 26.878V22.384H94.4409V30H92.9009V26.766H93.0549C93.0549 27.5313 92.9569 28.1707 92.7609 28.684C92.5649 29.1973 92.2709 29.5847 91.8789 29.846C91.4869 30.1073 90.9969 30.238 90.4089 30.238H90.3249ZM100.078 30.266C99.425 30.266 98.851 30.154 98.3563 29.93C97.871 29.706 97.465 29.4073 97.1383 29.034C96.821 28.6513 96.5783 28.2267 96.4103 27.76C96.2516 27.2933 96.1723 26.8173 96.1723 26.332V26.066C96.1723 25.562 96.2516 25.0767 96.4103 24.61C96.5783 24.134 96.821 23.714 97.1383 23.35C97.465 22.9767 97.8663 22.6827 98.3423 22.468C98.8183 22.244 99.369 22.132 99.9943 22.132C100.816 22.132 101.502 22.314 102.052 22.678C102.612 23.0327 103.032 23.504 103.312 24.092C103.592 24.6707 103.732 25.296 103.732 25.968V26.668H96.9983V25.478H102.514L101.912 26.066C101.912 25.5807 101.842 25.1653 101.702 24.82C101.562 24.4747 101.348 24.2087 101.058 24.022C100.778 23.8353 100.424 23.742 99.9943 23.742C99.565 23.742 99.201 23.84 98.9023 24.036C98.6036 24.232 98.375 24.5167 98.2163 24.89C98.067 25.254 97.9923 25.6927 97.9923 26.206C97.9923 26.682 98.067 27.1067 98.2163 27.48C98.3656 27.844 98.5943 28.1333 98.9023 28.348C99.2103 28.5533 99.6023 28.656 100.078 28.656C100.554 28.656 100.942 28.5627 101.24 28.376C101.539 28.18 101.73 27.942 101.814 27.662H103.606C103.494 28.1847 103.28 28.642 102.962 29.034C102.645 29.426 102.239 29.7293 101.744 29.944C101.259 30.1587 100.704 30.266 100.078 30.266ZM113.139 30.266C112.215 30.266 111.422 30.1027 110.759 29.776C110.097 29.4493 109.555 29.0247 109.135 28.502C108.725 27.9793 108.421 27.41 108.225 26.794C108.029 26.178 107.931 25.5853 107.931 25.016V24.708C107.931 24.0733 108.029 23.448 108.225 22.832C108.431 22.216 108.743 21.656 109.163 21.152C109.583 20.648 110.115 20.2467 110.759 19.948C111.413 19.64 112.183 19.486 113.069 19.486C113.993 19.486 114.796 19.654 115.477 19.99C116.168 20.3167 116.719 20.7833 117.129 21.39C117.54 21.9873 117.787 22.6873 117.871 23.49H115.869C115.795 23.0233 115.627 22.6313 115.365 22.314C115.113 21.9873 114.791 21.7447 114.399 21.586C114.007 21.418 113.564 21.334 113.069 21.334C112.565 21.334 112.117 21.4227 111.725 21.6C111.333 21.768 111.007 22.0107 110.745 22.328C110.484 22.6453 110.283 23.0187 110.143 23.448C110.013 23.8773 109.947 24.3533 109.947 24.876C109.947 25.38 110.013 25.8467 110.143 26.276C110.283 26.7053 110.489 27.0833 110.759 27.41C111.03 27.7273 111.361 27.9747 111.753 28.152C112.155 28.3293 112.617 28.418 113.139 28.418C113.905 28.418 114.549 28.2313 115.071 27.858C115.603 27.4753 115.925 26.9433 116.037 26.262H118.039C117.946 26.99 117.699 27.6573 117.297 28.264C116.896 28.8707 116.345 29.356 115.645 29.72C114.945 30.084 114.11 30.266 113.139 30.266ZM119.563 30V19.78H121.509V25.744H121.173C121.173 24.9787 121.271 24.33 121.467 23.798C121.663 23.266 121.952 22.86 122.335 22.58C122.727 22.3 123.222 22.16 123.819 22.16H123.903C124.771 22.16 125.429 22.4587 125.877 23.056C126.325 23.6533 126.549 24.5213 126.549 25.66V30H124.603V25.478C124.603 24.9927 124.463 24.61 124.183 24.33C123.912 24.05 123.553 23.91 123.105 23.91C122.629 23.91 122.242 24.0687 121.943 24.386C121.654 24.694 121.509 25.1 121.509 25.604V30H119.563ZM133.247 30V27.746H132.925V25.24C132.925 24.8013 132.818 24.4747 132.603 24.26C132.388 24.0453 132.057 23.938 131.609 23.938C131.376 23.938 131.096 23.9427 130.769 23.952C130.442 23.9613 130.111 23.9753 129.775 23.994C129.448 24.0033 129.154 24.0173 128.893 24.036V22.384C129.108 22.3653 129.35 22.3467 129.621 22.328C129.892 22.3093 130.167 22.3 130.447 22.3C130.736 22.2907 131.007 22.286 131.259 22.286C132.043 22.286 132.692 22.3887 133.205 22.594C133.728 22.7993 134.12 23.1213 134.381 23.56C134.652 23.9987 134.787 24.5727 134.787 25.282V30H133.247ZM130.797 30.196C130.246 30.196 129.761 30.098 129.341 29.902C128.93 29.706 128.608 29.426 128.375 29.062C128.151 28.698 128.039 28.2593 128.039 27.746C128.039 27.186 128.174 26.7287 128.445 26.374C128.725 26.0193 129.112 25.7533 129.607 25.576C130.111 25.3987 130.699 25.31 131.371 25.31H133.135V26.472H131.343C130.895 26.472 130.55 26.584 130.307 26.808C130.074 27.0227 129.957 27.3027 129.957 27.648C129.957 27.9933 130.074 28.2733 130.307 28.488C130.55 28.7027 130.895 28.81 131.343 28.81C131.614 28.81 131.861 28.7633 132.085 28.67C132.318 28.5673 132.51 28.3993 132.659 28.166C132.818 27.9233 132.906 27.5967 132.925 27.186L133.401 27.732C133.354 28.264 133.224 28.712 133.009 29.076C132.804 29.44 132.514 29.72 132.141 29.916C131.777 30.1027 131.329 30.196 130.797 30.196ZM136.872 30V22.398H138.412V25.618H138.37C138.37 24.526 138.603 23.7 139.07 23.14C139.536 22.58 140.222 22.3 141.128 22.3H141.408V23.994H140.876C140.222 23.994 139.714 24.1713 139.35 24.526C138.995 24.8713 138.818 25.3753 138.818 26.038V30H136.872ZM146.178 30.098C145.478 30.098 144.899 30.0093 144.442 29.832C143.994 29.6453 143.658 29.3373 143.434 28.908C143.21 28.4693 143.098 27.8813 143.098 27.144L143.112 20.256H144.932L144.918 27.27C144.918 27.6433 145.016 27.9327 145.212 28.138C145.417 28.334 145.706 28.432 146.08 28.432H147.27V30.098H146.178ZM141.894 23.826V22.398H147.27V23.826H141.894ZM152.288 30V22.398H154.234V30H152.288ZM151.224 23.854V22.398H154.234V23.854H151.224ZM153.002 21.488C152.62 21.488 152.335 21.39 152.148 21.194C151.971 20.9887 151.882 20.7367 151.882 20.438C151.882 20.1207 151.971 19.864 152.148 19.668C152.335 19.472 152.62 19.374 153.002 19.374C153.385 19.374 153.665 19.472 153.842 19.668C154.02 19.864 154.108 20.1207 154.108 20.438C154.108 20.7367 154.02 20.9887 153.842 21.194C153.665 21.39 153.385 21.488 153.002 21.488ZM156.477 30V22.398H158.017V25.66H157.877C157.877 24.8853 157.98 24.2413 158.185 23.728C158.39 23.2053 158.694 22.8133 159.095 22.552C159.506 22.2907 160.014 22.16 160.621 22.16H160.705C161.61 22.16 162.296 22.454 162.763 23.042C163.23 23.6207 163.463 24.4887 163.463 25.646V30H161.517V25.478C161.517 25.0113 161.382 24.6333 161.111 24.344C160.85 24.0547 160.486 23.91 160.019 23.91C159.543 23.91 159.156 24.0593 158.857 24.358C158.568 24.6473 158.423 25.0393 158.423 25.534V30H156.477ZM172.049 30.042C171.171 30.042 170.434 29.9113 169.837 29.65C169.249 29.3793 168.801 29.0013 168.493 28.516C168.194 28.0213 168.045 27.438 168.045 26.766H169.837C169.837 27.0553 169.911 27.3307 170.061 27.592C170.21 27.8533 170.443 28.068 170.761 28.236C171.087 28.3947 171.517 28.474 172.049 28.474C172.749 28.474 173.281 28.3387 173.645 28.068C174.009 27.7973 174.191 27.4613 174.191 27.06C174.191 26.696 174.032 26.3927 173.715 26.15C173.407 25.9073 172.926 25.758 172.273 25.702L171.489 25.632C170.527 25.5387 169.762 25.2493 169.193 24.764C168.623 24.2693 168.339 23.5693 168.339 22.664C168.339 22.0387 168.479 21.5113 168.759 21.082C169.048 20.6527 169.459 20.3307 169.991 20.116C170.532 19.892 171.171 19.78 171.909 19.78C172.674 19.78 173.323 19.906 173.855 20.158C174.396 20.41 174.807 20.774 175.087 21.25C175.376 21.7167 175.521 22.286 175.521 22.958H173.729C173.729 22.6687 173.659 22.4027 173.519 22.16C173.388 21.9173 173.187 21.7213 172.917 21.572C172.655 21.4227 172.319 21.348 171.909 21.348C171.535 21.348 171.218 21.404 170.957 21.516C170.695 21.628 170.495 21.782 170.355 21.978C170.215 22.174 170.145 22.4027 170.145 22.664C170.145 22.9907 170.261 23.28 170.495 23.532C170.737 23.784 171.125 23.9333 171.657 23.98L172.441 24.05C173.514 24.1433 174.373 24.442 175.017 24.946C175.67 25.45 175.997 26.1547 175.997 27.06C175.997 27.6853 175.838 28.222 175.521 28.67C175.213 29.1087 174.765 29.4493 174.177 29.692C173.589 29.9253 172.879 30.042 172.049 30.042ZM171.195 31.806V29.762H172.819V31.806H171.195ZM171.139 20.466V18.422H172.763V20.466H171.139Z" fill="white"/>
<path d="M39.8209 337.609L42.7788 329.582H44.2742L47.331 337.609H46.4734L43.6254 330.11L44.0763 330.341H42.9217L43.3945 330.11L40.6566 337.609H39.8209ZM41.4043 335.058L41.6792 334.299H45.4068L45.6927 335.058H41.4043ZM51.8128 337.796C51.0797 337.796 50.4713 337.657 49.9875 337.378C49.5036 337.1 49.1408 336.711 48.8989 336.213C48.657 335.707 48.536 335.128 48.536 334.475V329.582H49.3717V334.574C49.3717 335.065 49.4597 335.494 49.6356 335.861C49.8189 336.227 50.0901 336.513 50.4493 336.718C50.8158 336.924 51.2703 337.026 51.8128 337.026C52.3479 337.026 52.7951 336.927 53.1543 336.729C53.5135 336.524 53.7847 336.238 53.9679 335.872C54.1512 335.498 54.2428 335.065 54.2428 334.574V329.582H55.0785V334.475C55.0785 335.128 54.9576 335.707 54.7157 336.213C54.4738 336.711 54.1109 337.1 53.6271 337.378C53.1506 337.657 52.5458 337.796 51.8128 337.796ZM60.9384 337.796C60.2787 337.796 59.6922 337.686 59.1791 337.466C58.6733 337.246 58.2481 336.946 57.9036 336.564C57.559 336.176 57.2951 335.732 57.1119 335.234C56.936 334.728 56.848 334.197 56.848 333.64V333.442C56.848 332.928 56.9323 332.43 57.1009 331.946C57.2768 331.462 57.5297 331.026 57.8596 330.638C58.1895 330.249 58.6 329.941 59.0911 329.714C59.5823 329.487 60.1394 329.373 60.7625 329.373C61.4149 329.373 61.994 329.498 62.4998 329.747C63.0056 329.989 63.4125 330.33 63.7204 330.77C64.0356 331.209 64.2188 331.719 64.2702 332.298H63.4235C63.3648 331.829 63.2072 331.433 62.9507 331.11C62.7014 330.788 62.3862 330.546 62.005 330.385C61.6238 330.223 61.2097 330.143 60.7625 330.143C60.2933 330.143 59.8682 330.227 59.487 330.396C59.1058 330.564 58.7832 330.803 58.5193 331.11C58.2554 331.418 58.0502 331.781 57.9036 332.199C57.7643 332.61 57.6947 333.06 57.6947 333.552C57.6947 334.072 57.768 334.549 57.9146 334.981C58.0612 335.406 58.2738 335.773 58.5523 336.081C58.8309 336.388 59.1681 336.627 59.5639 336.795C59.9671 336.964 60.4253 337.048 60.9384 337.048C61.5688 337.048 62.1223 336.927 62.5988 336.685C63.0826 336.436 63.4565 336.11 63.7204 335.707L63.3905 336.74V334.365H64.1822V336.366C63.8376 336.814 63.3905 337.166 62.8407 337.422C62.2909 337.671 61.6568 337.796 60.9384 337.796ZM60.6415 334.541V333.837H64.8969V334.541H60.6415ZM71.9282 337.796C71.3638 337.796 70.8799 337.697 70.4768 337.499C70.0736 337.301 69.7437 337.026 69.4871 336.674C69.2306 336.315 69.04 335.897 68.9154 335.421C68.7981 334.937 68.7394 334.417 68.7394 333.859V333.343C68.7394 332.558 68.8531 331.869 69.0803 331.275C69.3149 330.682 69.6667 330.216 70.1359 329.879C70.6124 329.542 71.2098 329.373 71.9282 329.373C72.6466 329.373 73.2404 329.542 73.7095 329.879C74.1787 330.216 74.5269 330.682 74.7541 331.275C74.9887 331.869 75.106 332.558 75.106 333.343V333.859C75.106 334.417 75.0437 334.937 74.9191 335.421C74.8018 335.897 74.6149 336.315 74.3583 336.674C74.1017 337.026 73.7718 337.301 73.3687 337.499C72.9655 337.697 72.4853 337.796 71.9282 337.796ZM71.9282 337.048C72.7199 337.048 73.3064 336.77 73.6875 336.213C74.0761 335.655 74.2703 334.787 74.2703 333.607C74.2703 332.375 74.0724 331.488 73.6765 330.946C73.288 330.396 72.7052 330.121 71.9282 330.121C71.1438 330.121 70.5537 330.396 70.1579 330.946C69.7694 331.488 69.5751 332.368 69.5751 333.585C69.5751 334.772 69.7657 335.648 70.1469 336.213C70.5354 336.77 71.1292 337.048 71.9282 337.048ZM78.2986 337.609V330.011L78.6615 330.297H76.4733V329.582H79.1233V337.609H78.2986Z" fill="white"/>
<path d="M104.821 337.609L107.779 329.582H109.274L112.331 337.609H111.473L108.625 330.11L109.076 330.341H107.922L108.395 330.11L105.657 337.609H104.821ZM106.404 335.058L106.679 334.299H110.407L110.693 335.058H106.404ZM116.813 337.796C116.08 337.796 115.471 337.657 114.987 337.378C114.504 337.1 114.141 336.711 113.899 336.213C113.657 335.707 113.536 335.128 113.536 334.475V329.582H114.372V334.574C114.372 335.065 114.46 335.494 114.636 335.861C114.819 336.227 115.09 336.513 115.449 336.718C115.816 336.924 116.27 337.026 116.813 337.026C117.348 337.026 117.795 336.927 118.154 336.729C118.513 336.524 118.785 336.238 118.968 335.872C119.151 335.498 119.243 335.065 119.243 334.574V329.582H120.079V334.475C120.079 335.128 119.958 335.707 119.716 336.213C119.474 336.711 119.111 337.1 118.627 337.378C118.151 337.657 117.546 337.796 116.813 337.796ZM125.938 337.796C125.279 337.796 124.692 337.686 124.179 337.466C123.673 337.246 123.248 336.946 122.904 336.564C122.559 336.176 122.295 335.732 122.112 335.234C121.936 334.728 121.848 334.197 121.848 333.64V333.442C121.848 332.928 121.932 332.43 122.101 331.946C122.277 331.462 122.53 331.026 122.86 330.638C123.189 330.249 123.6 329.941 124.091 329.714C124.582 329.487 125.139 329.373 125.762 329.373C126.415 329.373 126.994 329.498 127.5 329.747C128.006 329.989 128.412 330.33 128.72 330.77C129.036 331.209 129.219 331.719 129.27 332.298H128.423C128.365 331.829 128.207 331.433 127.951 331.11C127.701 330.788 127.386 330.546 127.005 330.385C126.624 330.223 126.21 330.143 125.762 330.143C125.293 330.143 124.868 330.227 124.487 330.396C124.106 330.564 123.783 330.803 123.519 331.11C123.255 331.418 123.05 331.781 122.904 332.199C122.764 332.61 122.695 333.06 122.695 333.552C122.695 334.072 122.768 334.549 122.915 334.981C123.061 335.406 123.274 335.773 123.552 336.081C123.831 336.388 124.168 336.627 124.564 336.795C124.967 336.964 125.425 337.048 125.938 337.048C126.569 337.048 127.122 336.927 127.599 336.685C128.083 336.436 128.456 336.11 128.72 335.707L128.39 336.74V334.365H129.182V336.366C128.838 336.814 128.39 337.166 127.841 337.422C127.291 337.671 126.657 337.796 125.938 337.796ZM125.642 334.541V333.837H129.897V334.541H125.642ZM136.928 337.796C136.364 337.796 135.88 337.697 135.477 337.499C135.074 337.301 134.744 337.026 134.487 336.674C134.231 336.315 134.04 335.897 133.915 335.421C133.798 334.937 133.739 334.417 133.739 333.859V333.343C133.739 332.558 133.853 331.869 134.08 331.275C134.315 330.682 134.667 330.216 135.136 329.879C135.612 329.542 136.21 329.373 136.928 329.373C137.647 329.373 138.24 329.542 138.71 329.879C139.179 330.216 139.527 330.682 139.754 331.275C139.989 331.869 140.106 332.558 140.106 333.343V333.859C140.106 334.417 140.044 334.937 139.919 335.421C139.802 335.897 139.615 336.315 139.358 336.674C139.102 337.026 138.772 337.301 138.369 337.499C137.965 337.697 137.485 337.796 136.928 337.796ZM136.928 337.048C137.72 337.048 138.306 336.77 138.688 336.213C139.076 335.655 139.27 334.787 139.27 333.607C139.27 332.375 139.072 331.488 138.677 330.946C138.288 330.396 137.705 330.121 136.928 330.121C136.144 330.121 135.554 330.396 135.158 330.946C134.769 331.488 134.575 332.368 134.575 333.585C134.575 334.772 134.766 335.648 135.147 336.213C135.535 336.77 136.129 337.048 136.928 337.048ZM143.299 337.609V330.011L143.662 330.297H141.473V329.582H144.123V337.609H143.299Z" fill="white"/>
<path d="M169.821 337.609L172.779 329.582H174.274L177.331 337.609H176.473L173.625 330.11L174.076 330.341H172.922L173.395 330.11L170.657 337.609H169.821ZM171.404 335.058L171.679 334.299H175.407L175.693 335.058H171.404ZM181.813 337.796C181.08 337.796 180.471 337.657 179.987 337.378C179.504 337.1 179.141 336.711 178.899 336.213C178.657 335.707 178.536 335.128 178.536 334.475V329.582H179.372V334.574C179.372 335.065 179.46 335.494 179.636 335.861C179.819 336.227 180.09 336.513 180.449 336.718C180.816 336.924 181.27 337.026 181.813 337.026C182.348 337.026 182.795 336.927 183.154 336.729C183.513 336.524 183.785 336.238 183.968 335.872C184.151 335.498 184.243 335.065 184.243 334.574V329.582H185.079V334.475C185.079 335.128 184.958 335.707 184.716 336.213C184.474 336.711 184.111 337.1 183.627 337.378C183.151 337.657 182.546 337.796 181.813 337.796ZM190.938 337.796C190.279 337.796 189.692 337.686 189.179 337.466C188.673 337.246 188.248 336.946 187.904 336.564C187.559 336.176 187.295 335.732 187.112 335.234C186.936 334.728 186.848 334.197 186.848 333.64V333.442C186.848 332.928 186.932 332.43 187.101 331.946C187.277 331.462 187.53 331.026 187.86 330.638C188.189 330.249 188.6 329.941 189.091 329.714C189.582 329.487 190.139 329.373 190.762 329.373C191.415 329.373 191.994 329.498 192.5 329.747C193.006 329.989 193.412 330.33 193.72 330.77C194.036 331.209 194.219 331.719 194.27 332.298H193.423C193.365 331.829 193.207 331.433 192.951 331.11C192.701 330.788 192.386 330.546 192.005 330.385C191.624 330.223 191.21 330.143 190.762 330.143C190.293 330.143 189.868 330.227 189.487 330.396C189.106 330.564 188.783 330.803 188.519 331.11C188.255 331.418 188.05 331.781 187.904 332.199C187.764 332.61 187.695 333.06 187.695 333.552C187.695 334.072 187.768 334.549 187.915 334.981C188.061 335.406 188.274 335.773 188.552 336.081C188.831 336.388 189.168 336.627 189.564 336.795C189.967 336.964 190.425 337.048 190.938 337.048C191.569 337.048 192.122 336.927 192.599 336.685C193.083 336.436 193.456 336.11 193.72 335.707L193.39 336.74V334.365H194.182V336.366C193.838 336.814 193.39 337.166 192.841 337.422C192.291 337.671 191.657 337.796 190.938 337.796ZM190.642 334.541V333.837H194.897V334.541H190.642ZM201.928 337.796C201.364 337.796 200.88 337.697 200.477 337.499C200.074 337.301 199.744 337.026 199.487 336.674C199.231 336.315 199.04 335.897 198.915 335.421C198.798 334.937 198.739 334.417 198.739 333.859V333.343C198.739 332.558 198.853 331.869 199.08 331.275C199.315 330.682 199.667 330.216 200.136 329.879C200.612 329.542 201.21 329.373 201.928 329.373C202.647 329.373 203.24 329.542 203.71 329.879C204.179 330.216 204.527 330.682 204.754 331.275C204.989 331.869 205.106 332.558 205.106 333.343V333.859C205.106 334.417 205.044 334.937 204.919 335.421C204.802 335.897 204.615 336.315 204.358 336.674C204.102 337.026 203.772 337.301 203.369 337.499C202.965 337.697 202.485 337.796 201.928 337.796ZM201.928 337.048C202.72 337.048 203.306 336.77 203.688 336.213C204.076 335.655 204.27 334.787 204.27 333.607C204.27 332.375 204.072 331.488 203.677 330.946C203.288 330.396 202.705 330.121 201.928 330.121C201.144 330.121 200.554 330.396 200.158 330.946C199.769 331.488 199.575 332.368 199.575 333.585C199.575 334.772 199.766 335.648 200.147 336.213C200.535 336.77 201.129 337.048 201.928 337.048ZM208.299 337.609V330.011L208.662 330.297H206.473V329.582H209.123V337.609H208.299Z" fill="white"/>
<path d="M234.821 337.609L237.779 329.582H239.274L242.331 337.609H241.473L238.625 330.11L239.076 330.341H237.922L238.395 330.11L235.657 337.609H234.821ZM236.404 335.058L236.679 334.299H240.407L240.693 335.058H236.404ZM246.813 337.796C246.08 337.796 245.471 337.657 244.987 337.378C244.504 337.1 244.141 336.711 243.899 336.213C243.657 335.707 243.536 335.128 243.536 334.475V329.582H244.372V334.574C244.372 335.065 244.46 335.494 244.636 335.861C244.819 336.227 245.09 336.513 245.449 336.718C245.816 336.924 246.27 337.026 246.813 337.026C247.348 337.026 247.795 336.927 248.154 336.729C248.513 336.524 248.785 336.238 248.968 335.872C249.151 335.498 249.243 335.065 249.243 334.574V329.582H250.079V334.475C250.079 335.128 249.958 335.707 249.716 336.213C249.474 336.711 249.111 337.1 248.627 337.378C248.151 337.657 247.546 337.796 246.813 337.796ZM255.938 337.796C255.279 337.796 254.692 337.686 254.179 337.466C253.673 337.246 253.248 336.946 252.904 336.564C252.559 336.176 252.295 335.732 252.112 335.234C251.936 334.728 251.848 334.197 251.848 333.64V333.442C251.848 332.928 251.932 332.43 252.101 331.946C252.277 331.462 252.53 331.026 252.86 330.638C253.189 330.249 253.6 329.941 254.091 329.714C254.582 329.487 255.139 329.373 255.762 329.373C256.415 329.373 256.994 329.498 257.5 329.747C258.006 329.989 258.412 330.33 258.72 330.77C259.036 331.209 259.219 331.719 259.27 332.298H258.423C258.365 331.829 258.207 331.433 257.951 331.11C257.701 330.788 257.386 330.546 257.005 330.385C256.624 330.223 256.21 330.143 255.762 330.143C255.293 330.143 254.868 330.227 254.487 330.396C254.106 330.564 253.783 330.803 253.519 331.11C253.255 331.418 253.05 331.781 252.904 332.199C252.764 332.61 252.695 333.06 252.695 333.552C252.695 334.072 252.768 334.549 252.915 334.981C253.061 335.406 253.274 335.773 253.552 336.081C253.831 336.388 254.168 336.627 254.564 336.795C254.967 336.964 255.425 337.048 255.938 337.048C256.569 337.048 257.122 336.927 257.599 336.685C258.083 336.436 258.456 336.11 258.72 335.707L258.39 336.74V334.365H259.182V336.366C258.838 336.814 258.39 337.166 257.841 337.422C257.291 337.671 256.657 337.796 255.938 337.796ZM255.642 334.541V333.837H259.897V334.541H255.642ZM266.928 337.796C266.364 337.796 265.88 337.697 265.477 337.499C265.074 337.301 264.744 337.026 264.487 336.674C264.231 336.315 264.04 335.897 263.915 335.421C263.798 334.937 263.739 334.417 263.739 333.859V333.343C263.739 332.558 263.853 331.869 264.08 331.275C264.315 330.682 264.667 330.216 265.136 329.879C265.612 329.542 266.21 329.373 266.928 329.373C267.647 329.373 268.24 329.542 268.71 329.879C269.179 330.216 269.527 330.682 269.754 331.275C269.989 331.869 270.106 332.558 270.106 333.343V333.859C270.106 334.417 270.044 334.937 269.919 335.421C269.802 335.897 269.615 336.315 269.358 336.674C269.102 337.026 268.772 337.301 268.369 337.499C267.965 337.697 267.485 337.796 266.928 337.796ZM266.928 337.048C267.72 337.048 268.306 336.77 268.688 336.213C269.076 335.655 269.27 334.787 269.27 333.607C269.27 332.375 269.072 331.488 268.677 330.946C268.288 330.396 267.705 330.121 266.928 330.121C266.144 330.121 265.554 330.396 265.158 330.946C264.769 331.488 264.575 332.368 264.575 333.585C264.575 334.772 264.766 335.648 265.147 336.213C265.535 336.77 266.129 337.048 266.928 337.048ZM273.299 337.609V330.011L273.662 330.297H271.473V329.582H274.123V337.609H273.299Z" fill="white"/>
<path d="M299.821 337.609L302.779 329.582H304.274L307.331 337.609H306.473L303.625 330.11L304.076 330.341H302.922L303.395 330.11L300.657 337.609H299.821ZM301.404 335.058L301.679 334.299H305.407L305.693 335.058H301.404ZM311.813 337.796C311.08 337.796 310.471 337.657 309.987 337.378C309.504 337.1 309.141 336.711 308.899 336.213C308.657 335.707 308.536 335.128 308.536 334.475V329.582H309.372V334.574C309.372 335.065 309.46 335.494 309.636 335.861C309.819 336.227 310.09 336.513 310.449 336.718C310.816 336.924 311.27 337.026 311.813 337.026C312.348 337.026 312.795 336.927 313.154 336.729C313.513 336.524 313.785 336.238 313.968 335.872C314.151 335.498 314.243 335.065 314.243 334.574V329.582H315.079V334.475C315.079 335.128 314.958 335.707 314.716 336.213C314.474 336.711 314.111 337.1 313.627 337.378C313.151 337.657 312.546 337.796 311.813 337.796ZM320.938 337.796C320.279 337.796 319.692 337.686 319.179 337.466C318.673 337.246 318.248 336.946 317.904 336.564C317.559 336.176 317.295 335.732 317.112 335.234C316.936 334.728 316.848 334.197 316.848 333.64V333.442C316.848 332.928 316.932 332.43 317.101 331.946C317.277 331.462 317.53 331.026 317.86 330.638C318.189 330.249 318.6 329.941 319.091 329.714C319.582 329.487 320.139 329.373 320.762 329.373C321.415 329.373 321.994 329.498 322.5 329.747C323.006 329.989 323.412 330.33 323.72 330.77C324.036 331.209 324.219 331.719 324.27 332.298H323.423C323.365 331.829 323.207 331.433 322.951 331.11C322.701 330.788 322.386 330.546 322.005 330.385C321.624 330.223 321.21 330.143 320.762 330.143C320.293 330.143 319.868 330.227 319.487 330.396C319.106 330.564 318.783 330.803 318.519 331.11C318.255 331.418 318.05 331.781 317.904 332.199C317.764 332.61 317.695 333.06 317.695 333.552C317.695 334.072 317.768 334.549 317.915 334.981C318.061 335.406 318.274 335.773 318.552 336.081C318.831 336.388 319.168 336.627 319.564 336.795C319.967 336.964 320.425 337.048 320.938 337.048C321.569 337.048 322.122 336.927 322.599 336.685C323.083 336.436 323.456 336.11 323.72 335.707L323.39 336.74V334.365H324.182V336.366C323.838 336.814 323.39 337.166 322.841 337.422C322.291 337.671 321.657 337.796 320.938 337.796ZM320.642 334.541V333.837H324.897V334.541H320.642ZM331.928 337.796C331.364 337.796 330.88 337.697 330.477 337.499C330.074 337.301 329.744 337.026 329.487 336.674C329.231 336.315 329.04 335.897 328.915 335.421C328.798 334.937 328.739 334.417 328.739 333.859V333.343C328.739 332.558 328.853 331.869 329.08 331.275C329.315 330.682 329.667 330.216 330.136 329.879C330.612 329.542 331.21 329.373 331.928 329.373C332.647 329.373 333.24 329.542 333.71 329.879C334.179 330.216 334.527 330.682 334.754 331.275C334.989 331.869 335.106 332.558 335.106 333.343V333.859C335.106 334.417 335.044 334.937 334.919 335.421C334.802 335.897 334.615 336.315 334.358 336.674C334.102 337.026 333.772 337.301 333.369 337.499C332.965 337.697 332.485 337.796 331.928 337.796ZM331.928 337.048C332.72 337.048 333.306 336.77 333.688 336.213C334.076 335.655 334.27 334.787 334.27 333.607C334.27 332.375 334.072 331.488 333.677 330.946C333.288 330.396 332.705 330.121 331.928 330.121C331.144 330.121 330.554 330.396 330.158 330.946C329.769 331.488 329.575 332.368 329.575 333.585C329.575 334.772 329.766 335.648 330.147 336.213C330.535 336.77 331.129 337.048 331.928 337.048ZM338.299 337.609V330.011L338.662 330.297H336.473V329.582H339.123V337.609H338.299Z" fill="white"/>
<path d="M364.821 337.609L367.779 329.582H369.274L372.331 337.609H371.473L368.625 330.11L369.076 330.341H367.922L368.395 330.11L365.657 337.609H364.821ZM366.404 335.058L366.679 334.299H370.407L370.693 335.058H366.404ZM376.813 337.796C376.08 337.796 375.471 337.657 374.987 337.378C374.504 337.1 374.141 336.711 373.899 336.213C373.657 335.707 373.536 335.128 373.536 334.475V329.582H374.372V334.574C374.372 335.065 374.46 335.494 374.636 335.861C374.819 336.227 375.09 336.513 375.449 336.718C375.816 336.924 376.27 337.026 376.813 337.026C377.348 337.026 377.795 336.927 378.154 336.729C378.513 336.524 378.785 336.238 378.968 335.872C379.151 335.498 379.243 335.065 379.243 334.574V329.582H380.079V334.475C380.079 335.128 379.958 335.707 379.716 336.213C379.474 336.711 379.111 337.1 378.627 337.378C378.151 337.657 377.546 337.796 376.813 337.796ZM385.938 337.796C385.279 337.796 384.692 337.686 384.179 337.466C383.673 337.246 383.248 336.946 382.904 336.564C382.559 336.176 382.295 335.732 382.112 335.234C381.936 334.728 381.848 334.197 381.848 333.64V333.442C381.848 332.928 381.932 332.43 382.101 331.946C382.277 331.462 382.53 331.026 382.86 330.638C383.189 330.249 383.6 329.941 384.091 329.714C384.582 329.487 385.139 329.373 385.762 329.373C386.415 329.373 386.994 329.498 387.5 329.747C388.006 329.989 388.412 330.33 388.72 330.77C389.036 331.209 389.219 331.719 389.27 332.298H388.423C388.365 331.829 388.207 331.433 387.951 331.11C387.701 330.788 387.386 330.546 387.005 330.385C386.624 330.223 386.21 330.143 385.762 330.143C385.293 330.143 384.868 330.227 384.487 330.396C384.106 330.564 383.783 330.803 383.519 331.11C383.255 331.418 383.05 331.781 382.904 332.199C382.764 332.61 382.695 333.06 382.695 333.552C382.695 334.072 382.768 334.549 382.915 334.981C383.061 335.406 383.274 335.773 383.552 336.081C383.831 336.388 384.168 336.627 384.564 336.795C384.967 336.964 385.425 337.048 385.938 337.048C386.569 337.048 387.122 336.927 387.599 336.685C388.083 336.436 388.456 336.11 388.72 335.707L388.39 336.74V334.365H389.182V336.366C388.838 336.814 388.39 337.166 387.841 337.422C387.291 337.671 386.657 337.796 385.938 337.796ZM385.642 334.541V333.837H389.897V334.541H385.642ZM396.928 337.796C396.364 337.796 395.88 337.697 395.477 337.499C395.074 337.301 394.744 337.026 394.487 336.674C394.231 336.315 394.04 335.897 393.915 335.421C393.798 334.937 393.739 334.417 393.739 333.859V333.343C393.739 332.558 393.853 331.869 394.08 331.275C394.315 330.682 394.667 330.216 395.136 329.879C395.612 329.542 396.21 329.373 396.928 329.373C397.647 329.373 398.24 329.542 398.71 329.879C399.179 330.216 399.527 330.682 399.754 331.275C399.989 331.869 400.106 332.558 400.106 333.343V333.859C400.106 334.417 400.044 334.937 399.919 335.421C399.802 335.897 399.615 336.315 399.358 336.674C399.102 337.026 398.772 337.301 398.369 337.499C397.965 337.697 397.485 337.796 396.928 337.796ZM396.928 337.048C397.72 337.048 398.306 336.77 398.688 336.213C399.076 335.655 399.27 334.787 399.27 333.607C399.27 332.375 399.072 331.488 398.677 330.946C398.288 330.396 397.705 330.121 396.928 330.121C396.144 330.121 395.554 330.396 395.158 330.946C394.769 331.488 394.575 332.368 394.575 333.585C394.575 334.772 394.766 335.648 395.147 336.213C395.535 336.77 396.129 337.048 396.928 337.048ZM403.299 337.609V330.011L403.662 330.297H401.473V329.582H404.123V337.609H403.299Z" fill="white"/>
<path d="M429.821 337.609L432.779 329.582H434.274L437.331 337.609H436.473L433.625 330.11L434.076 330.341H432.922L433.395 330.11L430.657 337.609H429.821ZM431.404 335.058L431.679 334.299H435.407L435.693 335.058H431.404ZM441.813 337.796C441.08 337.796 440.471 337.657 439.987 337.378C439.504 337.1 439.141 336.711 438.899 336.213C438.657 335.707 438.536 335.128 438.536 334.475V329.582H439.372V334.574C439.372 335.065 439.46 335.494 439.636 335.861C439.819 336.227 440.09 336.513 440.449 336.718C440.816 336.924 441.27 337.026 441.813 337.026C442.348 337.026 442.795 336.927 443.154 336.729C443.513 336.524 443.785 336.238 443.968 335.872C444.151 335.498 444.243 335.065 444.243 334.574V329.582H445.079V334.475C445.079 335.128 444.958 335.707 444.716 336.213C444.474 336.711 444.111 337.1 443.627 337.378C443.151 337.657 442.546 337.796 441.813 337.796ZM450.938 337.796C450.279 337.796 449.692 337.686 449.179 337.466C448.673 337.246 448.248 336.946 447.904 336.564C447.559 336.176 447.295 335.732 447.112 335.234C446.936 334.728 446.848 334.197 446.848 333.64V333.442C446.848 332.928 446.932 332.43 447.101 331.946C447.277 331.462 447.53 331.026 447.86 330.638C448.189 330.249 448.6 329.941 449.091 329.714C449.582 329.487 450.139 329.373 450.762 329.373C451.415 329.373 451.994 329.498 452.5 329.747C453.006 329.989 453.412 330.33 453.72 330.77C454.036 331.209 454.219 331.719 454.27 332.298H453.423C453.365 331.829 453.207 331.433 452.951 331.11C452.701 330.788 452.386 330.546 452.005 330.385C451.624 330.223 451.21 330.143 450.762 330.143C450.293 330.143 449.868 330.227 449.487 330.396C449.106 330.564 448.783 330.803 448.519 331.11C448.255 331.418 448.05 331.781 447.904 332.199C447.764 332.61 447.695 333.06 447.695 333.552C447.695 334.072 447.768 334.549 447.915 334.981C448.061 335.406 448.274 335.773 448.552 336.081C448.831 336.388 449.168 336.627 449.564 336.795C449.967 336.964 450.425 337.048 450.938 337.048C451.569 337.048 452.122 336.927 452.599 336.685C453.083 336.436 453.456 336.11 453.72 335.707L453.39 336.74V334.365H454.182V336.366C453.838 336.814 453.39 337.166 452.841 337.422C452.291 337.671 451.657 337.796 450.938 337.796ZM450.642 334.541V333.837H454.897V334.541H450.642ZM461.928 337.796C461.364 337.796 460.88 337.697 460.477 337.499C460.074 337.301 459.744 337.026 459.487 336.674C459.231 336.315 459.04 335.897 458.915 335.421C458.798 334.937 458.739 334.417 458.739 333.859V333.343C458.739 332.558 458.853 331.869 459.08 331.275C459.315 330.682 459.667 330.216 460.136 329.879C460.612 329.542 461.21 329.373 461.928 329.373C462.647 329.373 463.24 329.542 463.71 329.879C464.179 330.216 464.527 330.682 464.754 331.275C464.989 331.869 465.106 332.558 465.106 333.343V333.859C465.106 334.417 465.044 334.937 464.919 335.421C464.802 335.897 464.615 336.315 464.358 336.674C464.102 337.026 463.772 337.301 463.369 337.499C462.965 337.697 462.485 337.796 461.928 337.796ZM461.928 337.048C462.72 337.048 463.306 336.77 463.688 336.213C464.076 335.655 464.27 334.787 464.27 333.607C464.27 332.375 464.072 331.488 463.677 330.946C463.288 330.396 462.705 330.121 461.928 330.121C461.144 330.121 460.554 330.396 460.158 330.946C459.769 331.488 459.575 332.368 459.575 333.585C459.575 334.772 459.766 335.648 460.147 336.213C460.535 336.77 461.129 337.048 461.928 337.048ZM468.299 337.609V330.011L468.662 330.297H466.473V329.582H469.123V337.609H468.299Z" fill="white"/>
<path d="M494.821 337.609L497.779 329.582H499.274L502.331 337.609H501.473L498.625 330.11L499.076 330.341H497.922L498.395 330.11L495.657 337.609H494.821ZM496.404 335.058L496.679 334.299H500.407L500.693 335.058H496.404ZM506.813 337.796C506.08 337.796 505.471 337.657 504.987 337.378C504.504 337.1 504.141 336.711 503.899 336.213C503.657 335.707 503.536 335.128 503.536 334.475V329.582H504.372V334.574C504.372 335.065 504.46 335.494 504.636 335.861C504.819 336.227 505.09 336.513 505.449 336.718C505.816 336.924 506.27 337.026 506.813 337.026C507.348 337.026 507.795 336.927 508.154 336.729C508.513 336.524 508.785 336.238 508.968 335.872C509.151 335.498 509.243 335.065 509.243 334.574V329.582H510.079V334.475C510.079 335.128 509.958 335.707 509.716 336.213C509.474 336.711 509.111 337.1 508.627 337.378C508.151 337.657 507.546 337.796 506.813 337.796ZM515.938 337.796C515.279 337.796 514.692 337.686 514.179 337.466C513.673 337.246 513.248 336.946 512.904 336.564C512.559 336.176 512.295 335.732 512.112 335.234C511.936 334.728 511.848 334.197 511.848 333.64V333.442C511.848 332.928 511.932 332.43 512.101 331.946C512.277 331.462 512.53 331.026 512.86 330.638C513.189 330.249 513.6 329.941 514.091 329.714C514.582 329.487 515.139 329.373 515.762 329.373C516.415 329.373 516.994 329.498 517.5 329.747C518.006 329.989 518.412 330.33 518.72 330.77C519.036 331.209 519.219 331.719 519.27 332.298H518.423C518.365 331.829 518.207 331.433 517.951 331.11C517.701 330.788 517.386 330.546 517.005 330.385C516.624 330.223 516.21 330.143 515.762 330.143C515.293 330.143 514.868 330.227 514.487 330.396C514.106 330.564 513.783 330.803 513.519 331.11C513.255 331.418 513.05 331.781 512.904 332.199C512.764 332.61 512.695 333.06 512.695 333.552C512.695 334.072 512.768 334.549 512.915 334.981C513.061 335.406 513.274 335.773 513.552 336.081C513.831 336.388 514.168 336.627 514.564 336.795C514.967 336.964 515.425 337.048 515.938 337.048C516.569 337.048 517.122 336.927 517.599 336.685C518.083 336.436 518.456 336.11 518.72 335.707L518.39 336.74V334.365H519.182V336.366C518.838 336.814 518.39 337.166 517.841 337.422C517.291 337.671 516.657 337.796 515.938 337.796ZM515.642 334.541V333.837H519.897V334.541H515.642ZM526.928 337.796C526.364 337.796 525.88 337.697 525.477 337.499C525.074 337.301 524.744 337.026 524.487 336.674C524.231 336.315 524.04 335.897 523.915 335.421C523.798 334.937 523.739 334.417 523.739 333.859V333.343C523.739 332.558 523.853 331.869 524.08 331.275C524.315 330.682 524.667 330.216 525.136 329.879C525.612 329.542 526.21 329.373 526.928 329.373C527.647 329.373 528.24 329.542 528.71 329.879C529.179 330.216 529.527 330.682 529.754 331.275C529.989 331.869 530.106 332.558 530.106 333.343V333.859C530.106 334.417 530.044 334.937 529.919 335.421C529.802 335.897 529.615 336.315 529.358 336.674C529.102 337.026 528.772 337.301 528.369 337.499C527.965 337.697 527.485 337.796 526.928 337.796ZM526.928 337.048C527.72 337.048 528.306 336.77 528.688 336.213C529.076 335.655 529.27 334.787 529.27 333.607C529.27 332.375 529.072 331.488 528.677 330.946C528.288 330.396 527.705 330.121 526.928 330.121C526.144 330.121 525.554 330.396 525.158 330.946C524.769 331.488 524.575 332.368 524.575 333.585C524.575 334.772 524.766 335.648 525.147 336.213C525.535 336.77 526.129 337.048 526.928 337.048ZM533.299 337.609V330.011L533.662 330.297H531.473V329.582H534.123V337.609H533.299Z" fill="white"/>
<path d="M559.821 337.609L562.779 329.582H564.274L567.331 337.609H566.473L563.625 330.11L564.076 330.341H562.922L563.395 330.11L560.657 337.609H559.821ZM561.404 335.058L561.679 334.299H565.407L565.693 335.058H561.404ZM571.813 337.796C571.08 337.796 570.471 337.657 569.987 337.378C569.504 337.1 569.141 336.711 568.899 336.213C568.657 335.707 568.536 335.128 568.536 334.475V329.582H569.372V334.574C569.372 335.065 569.46 335.494 569.636 335.861C569.819 336.227 570.09 336.513 570.449 336.718C570.816 336.924 571.27 337.026 571.813 337.026C572.348 337.026 572.795 336.927 573.154 336.729C573.513 336.524 573.785 336.238 573.968 335.872C574.151 335.498 574.243 335.065 574.243 334.574V329.582H575.079V334.475C575.079 335.128 574.958 335.707 574.716 336.213C574.474 336.711 574.111 337.1 573.627 337.378C573.151 337.657 572.546 337.796 571.813 337.796ZM580.938 337.796C580.279 337.796 579.692 337.686 579.179 337.466C578.673 337.246 578.248 336.946 577.904 336.564C577.559 336.176 577.295 335.732 577.112 335.234C576.936 334.728 576.848 334.197 576.848 333.64V333.442C576.848 332.928 576.932 332.43 577.101 331.946C577.277 331.462 577.53 331.026 577.86 330.638C578.189 330.249 578.6 329.941 579.091 329.714C579.582 329.487 580.139 329.373 580.762 329.373C581.415 329.373 581.994 329.498 582.5 329.747C583.006 329.989 583.412 330.33 583.72 330.77C584.036 331.209 584.219 331.719 584.27 332.298H583.423C583.365 331.829 583.207 331.433 582.951 331.11C582.701 330.788 582.386 330.546 582.005 330.385C581.624 330.223 581.21 330.143 580.762 330.143C580.293 330.143 579.868 330.227 579.487 330.396C579.106 330.564 578.783 330.803 578.519 331.11C578.255 331.418 578.05 331.781 577.904 332.199C577.764 332.61 577.695 333.06 577.695 333.552C577.695 334.072 577.768 334.549 577.915 334.981C578.061 335.406 578.274 335.773 578.552 336.081C578.831 336.388 579.168 336.627 579.564 336.795C579.967 336.964 580.425 337.048 580.938 337.048C581.569 337.048 582.122 336.927 582.599 336.685C583.083 336.436 583.456 336.11 583.72 335.707L583.39 336.74V334.365H584.182V336.366C583.838 336.814 583.39 337.166 582.841 337.422C582.291 337.671 581.657 337.796 580.938 337.796ZM580.642 334.541V333.837H584.897V334.541H580.642ZM591.928 337.796C591.364 337.796 590.88 337.697 590.477 337.499C590.074 337.301 589.744 337.026 589.487 336.674C589.231 336.315 589.04 335.897 588.915 335.421C588.798 334.937 588.739 334.417 588.739 333.859V333.343C588.739 332.558 588.853 331.869 589.08 331.275C589.315 330.682 589.667 330.216 590.136 329.879C590.612 329.542 591.21 329.373 591.928 329.373C592.647 329.373 593.24 329.542 593.71 329.879C594.179 330.216 594.527 330.682 594.754 331.275C594.989 331.869 595.106 332.558 595.106 333.343V333.859C595.106 334.417 595.044 334.937 594.919 335.421C594.802 335.897 594.615 336.315 594.358 336.674C594.102 337.026 593.772 337.301 593.369 337.499C592.965 337.697 592.485 337.796 591.928 337.796ZM591.928 337.048C592.72 337.048 593.306 336.77 593.688 336.213C594.076 335.655 594.27 334.787 594.27 333.607C594.27 332.375 594.072 331.488 593.677 330.946C593.288 330.396 592.705 330.121 591.928 330.121C591.144 330.121 590.554 330.396 590.158 330.946C589.769 331.488 589.575 332.368 589.575 333.585C589.575 334.772 589.766 335.648 590.147 336.213C590.535 336.77 591.129 337.048 591.928 337.048ZM598.299 337.609V330.011L598.662 330.297H596.473V329.582H599.123V337.609H598.299Z" fill="white"/>
<path d="M624.821 337.609L627.779 329.582H629.274L632.331 337.609H631.473L628.625 330.11L629.076 330.341H627.922L628.395 330.11L625.657 337.609H624.821ZM626.404 335.058L626.679 334.299H630.407L630.693 335.058H626.404ZM636.813 337.796C636.08 337.796 635.471 337.657 634.987 337.378C634.504 337.1 634.141 336.711 633.899 336.213C633.657 335.707 633.536 335.128 633.536 334.475V329.582H634.372V334.574C634.372 335.065 634.46 335.494 634.636 335.861C634.819 336.227 635.09 336.513 635.449 336.718C635.816 336.924 636.27 337.026 636.813 337.026C637.348 337.026 637.795 336.927 638.154 336.729C638.513 336.524 638.785 336.238 638.968 335.872C639.151 335.498 639.243 335.065 639.243 334.574V329.582H640.079V334.475C640.079 335.128 639.958 335.707 639.716 336.213C639.474 336.711 639.111 337.1 638.627 337.378C638.151 337.657 637.546 337.796 636.813 337.796ZM645.938 337.796C645.279 337.796 644.692 337.686 644.179 337.466C643.673 337.246 643.248 336.946 642.904 336.564C642.559 336.176 642.295 335.732 642.112 335.234C641.936 334.728 641.848 334.197 641.848 333.64V333.442C641.848 332.928 641.932 332.43 642.101 331.946C642.277 331.462 642.53 331.026 642.86 330.638C643.189 330.249 643.6 329.941 644.091 329.714C644.582 329.487 645.139 329.373 645.762 329.373C646.415 329.373 646.994 329.498 647.5 329.747C648.006 329.989 648.412 330.33 648.72 330.77C649.036 331.209 649.219 331.719 649.27 332.298H648.423C648.365 331.829 648.207 331.433 647.951 331.11C647.701 330.788 647.386 330.546 647.005 330.385C646.624 330.223 646.21 330.143 645.762 330.143C645.293 330.143 644.868 330.227 644.487 330.396C644.106 330.564 643.783 330.803 643.519 331.11C643.255 331.418 643.05 331.781 642.904 332.199C642.764 332.61 642.695 333.06 642.695 333.552C642.695 334.072 642.768 334.549 642.915 334.981C643.061 335.406 643.274 335.773 643.552 336.081C643.831 336.388 644.168 336.627 644.564 336.795C644.967 336.964 645.425 337.048 645.938 337.048C646.569 337.048 647.122 336.927 647.599 336.685C648.083 336.436 648.456 336.11 648.72 335.707L648.39 336.74V334.365H649.182V336.366C648.838 336.814 648.39 337.166 647.841 337.422C647.291 337.671 646.657 337.796 645.938 337.796ZM645.642 334.541V333.837H649.897V334.541H645.642ZM656.928 337.796C656.364 337.796 655.88 337.697 655.477 337.499C655.074 337.301 654.744 337.026 654.487 336.674C654.231 336.315 654.04 335.897 653.915 335.421C653.798 334.937 653.739 334.417 653.739 333.859V333.343C653.739 332.558 653.853 331.869 654.08 331.275C654.315 330.682 654.667 330.216 655.136 329.879C655.612 329.542 656.21 329.373 656.928 329.373C657.647 329.373 658.24 329.542 658.71 329.879C659.179 330.216 659.527 330.682 659.754 331.275C659.989 331.869 660.106 332.558 660.106 333.343V333.859C660.106 334.417 660.044 334.937 659.919 335.421C659.802 335.897 659.615 336.315 659.358 336.674C659.102 337.026 658.772 337.301 658.369 337.499C657.965 337.697 657.485 337.796 656.928 337.796ZM656.928 337.048C657.72 337.048 658.306 336.77 658.688 336.213C659.076 335.655 659.27 334.787 659.27 333.607C659.27 332.375 659.072 331.488 658.677 330.946C658.288 330.396 657.705 330.121 656.928 330.121C656.144 330.121 655.554 330.396 655.158 330.946C654.769 331.488 654.575 332.368 654.575 333.585C654.575 334.772 654.766 335.648 655.147 336.213C655.535 336.77 656.129 337.048 656.928 337.048ZM663.299 337.609V330.011L663.662 330.297H661.473V329.582H664.123V337.609H663.299Z" fill="white"/>
<path d="M588.815 29.0847C588.168 29.0847 587.621 28.9814 587.175 28.7747C586.735 28.568 586.398 28.2847 586.165 27.9247C585.931 27.558 585.815 27.1447 585.815 26.6847H587.205C587.205 26.878 587.258 27.068 587.365 27.2547C587.471 27.4347 587.641 27.5814 587.875 27.6947C588.115 27.808 588.428 27.8647 588.815 27.8647C589.161 27.8647 589.451 27.8147 589.685 27.7147C589.918 27.6147 590.091 27.4847 590.205 27.3247C590.318 27.158 590.375 26.9714 590.375 26.7647C590.375 26.5047 590.265 26.298 590.045 26.1447C589.825 25.9847 589.485 25.8847 589.025 25.8447L588.385 25.7947C587.685 25.7347 587.125 25.518 586.705 25.1447C586.291 24.7647 586.085 24.2647 586.085 23.6447C586.085 23.178 586.195 22.778 586.415 22.4447C586.635 22.1047 586.941 21.8447 587.335 21.6647C587.735 21.478 588.201 21.3847 588.735 21.3847C589.288 21.3847 589.765 21.4814 590.165 21.6747C590.565 21.868 590.875 22.1414 591.095 22.4947C591.315 22.8414 591.425 23.2514 591.425 23.7247H590.035C590.035 23.5247 589.985 23.3414 589.885 23.1747C589.791 23.0014 589.648 22.8647 589.455 22.7647C589.268 22.658 589.028 22.6047 588.735 22.6047C588.455 22.6047 588.221 22.6514 588.035 22.7447C587.848 22.838 587.708 22.9647 587.615 23.1247C587.521 23.2847 587.475 23.458 587.475 23.6447C587.475 23.8714 587.558 24.0714 587.725 24.2447C587.891 24.4114 588.155 24.508 588.515 24.5347L589.155 24.5947C589.675 24.6347 590.131 24.7447 590.525 24.9247C590.918 25.1047 591.221 25.348 591.435 25.6547C591.655 25.9614 591.765 26.3314 591.765 26.7647C591.765 27.2247 591.645 27.6314 591.405 27.9847C591.165 28.3314 590.821 28.6014 590.375 28.7947C589.935 28.988 589.415 29.0847 588.815 29.0847ZM596.493 29.0847C595.833 29.0847 595.26 28.968 594.773 28.7347C594.293 28.5014 593.893 28.198 593.573 27.8247C593.26 27.4447 593.023 27.038 592.863 26.6047C592.71 26.1647 592.633 25.7414 592.633 25.3347V25.1147C592.633 24.668 592.713 24.2247 592.873 23.7847C593.033 23.338 593.273 22.9347 593.593 22.5747C593.92 22.2147 594.323 21.928 594.803 21.7147C595.283 21.4947 595.846 21.3847 596.493 21.3847C597.133 21.3847 597.693 21.4947 598.173 21.7147C598.653 21.928 599.053 22.2147 599.373 22.5747C599.7 22.9347 599.943 23.338 600.103 23.7847C600.263 24.2247 600.343 24.668 600.343 25.1147V25.3347C600.343 25.7414 600.263 26.1647 600.103 26.6047C599.95 27.038 599.713 27.4447 599.393 27.8247C599.08 28.198 598.68 28.5014 598.193 28.7347C597.713 28.968 597.146 29.0847 596.493 29.0847ZM596.493 27.7647C596.866 27.7647 597.2 27.698 597.493 27.5647C597.793 27.4314 598.046 27.248 598.253 27.0147C598.466 26.7747 598.626 26.5047 598.733 26.2047C598.846 25.898 598.903 25.5747 598.903 25.2347C598.903 24.868 598.846 24.5314 598.733 24.2247C598.626 23.918 598.466 23.6514 598.253 23.4247C598.046 23.198 597.793 23.0214 597.493 22.8947C597.193 22.768 596.86 22.7047 596.493 22.7047C596.12 22.7047 595.783 22.768 595.483 22.8947C595.183 23.0214 594.926 23.198 594.713 23.4247C594.506 23.6514 594.346 23.918 594.233 24.2247C594.126 24.5314 594.073 24.868 594.073 25.2347C594.073 25.5747 594.126 25.898 594.233 26.2047C594.346 26.5047 594.506 26.7747 594.713 27.0147C594.926 27.248 595.183 27.4314 595.483 27.5647C595.783 27.698 596.12 27.7647 596.493 27.7647ZM601.715 28.8947V21.5947H603.135V28.8947H601.715ZM602.935 28.8947V27.6447H606.085V28.8947H602.935ZM607.263 28.8947V21.5947H608.683V28.8947H607.263ZM611.724 28.9347V27.6147H613.234C613.614 27.6147 613.951 27.558 614.244 27.4447C614.544 27.3247 614.798 27.158 615.004 26.9447C615.211 26.7314 615.368 26.4814 615.474 26.1947C615.588 25.9014 615.644 25.578 615.644 25.2247C615.644 24.858 615.588 24.5314 615.474 24.2447C615.368 23.9514 615.211 23.7014 615.004 23.4947C614.798 23.288 614.544 23.1314 614.244 23.0247C613.951 22.918 613.614 22.8647 613.234 22.8647H611.724V21.5447H613.144C613.804 21.5447 614.381 21.6414 614.874 21.8347C615.368 22.028 615.778 22.2947 616.104 22.6347C616.431 22.968 616.674 23.3514 616.834 23.7847C617.001 24.2114 617.084 24.6547 617.084 25.1147V25.3347C617.084 25.7747 617.001 26.208 616.834 26.6347C616.674 27.0614 616.431 27.448 616.104 27.7947C615.778 28.1414 615.368 28.418 614.874 28.6247C614.381 28.8314 613.804 28.9347 613.144 28.9347H611.724ZM610.504 28.9347V21.5447H611.924V28.9347H610.504ZM622.154 28.8947L619.824 21.5947H621.294L623.224 27.9147L622.804 27.7147H623.884L623.454 27.9147L625.234 21.5947H626.654L624.494 28.8947H622.154ZM630.735 28.8947V27.2847H630.505V25.4947C630.505 25.1814 630.429 24.948 630.275 24.7947C630.122 24.6414 629.885 24.5647 629.565 24.5647C629.399 24.5647 629.199 24.568 628.965 24.5747C628.732 24.5814 628.495 24.5914 628.255 24.6047C628.022 24.6114 627.812 24.6214 627.625 24.6347V23.4547C627.779 23.4414 627.952 23.428 628.145 23.4147C628.339 23.4014 628.535 23.3947 628.735 23.3947C628.942 23.388 629.135 23.3847 629.315 23.3847C629.875 23.3847 630.339 23.458 630.705 23.6047C631.079 23.7514 631.359 23.9814 631.545 24.2947C631.739 24.608 631.835 25.018 631.835 25.5247V28.8947H630.735ZM628.985 29.0347C628.592 29.0347 628.245 28.9647 627.945 28.8247C627.652 28.6847 627.422 28.4847 627.255 28.2247C627.095 27.9647 627.015 27.6514 627.015 27.2847C627.015 26.8847 627.112 26.558 627.305 26.3047C627.505 26.0514 627.782 25.8614 628.135 25.7347C628.495 25.608 628.915 25.5447 629.395 25.5447H630.655V26.3747H629.375C629.055 26.3747 628.809 26.4547 628.635 26.6147C628.469 26.768 628.385 26.968 628.385 27.2147C628.385 27.4614 628.469 27.6614 628.635 27.8147C628.809 27.968 629.055 28.0447 629.375 28.0447C629.569 28.0447 629.745 28.0114 629.905 27.9447C630.072 27.8714 630.209 27.7514 630.315 27.5847C630.429 27.4114 630.492 27.178 630.505 26.8847L630.845 27.2747C630.812 27.6547 630.719 27.9747 630.565 28.2347C630.419 28.4947 630.212 28.6947 629.945 28.8347C629.685 28.968 629.365 29.0347 628.985 29.0347ZM633.394 28.8947V21.5947H634.784V28.8947H633.394ZM632.714 22.6347V21.5947H634.784V22.6347H632.714ZM638.221 29.0647C637.594 29.0647 637.108 28.858 636.761 28.4447C636.421 28.0314 636.251 27.418 636.251 26.6047V23.4547H637.641V26.7247C637.641 27.058 637.734 27.3247 637.921 27.5247C638.108 27.718 638.361 27.8147 638.681 27.8147C639.001 27.8147 639.261 27.7114 639.461 27.5047C639.668 27.298 639.771 27.018 639.771 26.6647V23.4547H641.161V28.8947H640.061V26.5847H640.171C640.171 27.1314 640.101 27.588 639.961 27.9547C639.821 28.3214 639.611 28.598 639.331 28.7847C639.051 28.9714 638.701 29.0647 638.281 29.0647H638.221ZM645.188 29.0847C644.721 29.0847 644.311 29.0047 643.958 28.8447C643.611 28.6847 643.321 28.4714 643.088 28.2047C642.861 27.9314 642.688 27.628 642.568 27.2947C642.454 26.9614 642.398 26.6214 642.398 26.2747V26.0847C642.398 25.7247 642.454 25.378 642.568 25.0447C642.688 24.7047 642.861 24.4047 643.088 24.1447C643.321 23.878 643.608 23.668 643.948 23.5147C644.288 23.3547 644.681 23.2747 645.128 23.2747C645.714 23.2747 646.204 23.4047 646.598 23.6647C646.998 23.918 647.298 24.2547 647.498 24.6747C647.698 25.088 647.798 25.5347 647.798 26.0147V26.5147H642.988V25.6647H646.928L646.498 26.0847C646.498 25.738 646.448 25.4414 646.348 25.1947C646.248 24.948 646.094 24.758 645.888 24.6247C645.688 24.4914 645.434 24.4247 645.128 24.4247C644.821 24.4247 644.561 24.4947 644.348 24.6347C644.134 24.7747 643.971 24.978 643.858 25.2447C643.751 25.5047 643.698 25.818 643.698 26.1847C643.698 26.5247 643.751 26.828 643.858 27.0947C643.964 27.3547 644.128 27.5614 644.348 27.7147C644.568 27.8614 644.848 27.9347 645.188 27.9347C645.528 27.9347 645.804 27.868 646.018 27.7347C646.231 27.5947 646.368 27.4247 646.428 27.2247H647.708C647.628 27.598 647.474 27.9247 647.248 28.2047C647.021 28.4847 646.731 28.7014 646.378 28.8547C646.031 29.008 645.634 29.0847 645.188 29.0847ZM651.267 30.7147V21.1347H652.597V30.7147H651.267ZM652.117 30.7147V29.5747H653.737V30.7147H652.117ZM652.117 22.2747V21.1347H653.737V22.2747H652.117ZM657.464 28.9247C656.838 28.9247 656.311 28.8314 655.884 28.6447C655.464 28.4514 655.144 28.1814 654.924 27.8347C654.711 27.4814 654.604 27.0647 654.604 26.5847H655.884C655.884 26.7914 655.938 26.988 656.044 27.1747C656.151 27.3614 656.318 27.5147 656.544 27.6347C656.778 27.748 657.084 27.8047 657.464 27.8047C657.964 27.8047 658.344 27.708 658.604 27.5147C658.864 27.3214 658.994 27.0814 658.994 26.7947C658.994 26.5347 658.881 26.318 658.654 26.1447C658.434 25.9714 658.091 25.8647 657.624 25.8247L657.064 25.7747C656.378 25.708 655.831 25.5014 655.424 25.1547C655.018 24.8014 654.814 24.3014 654.814 23.6547C654.814 23.208 654.914 22.8314 655.114 22.5247C655.321 22.218 655.614 21.988 655.994 21.8347C656.381 21.6747 656.838 21.5947 657.364 21.5947C657.911 21.5947 658.374 21.6847 658.754 21.8647C659.141 22.0447 659.434 22.3047 659.634 22.6447C659.841 22.978 659.944 23.3847 659.944 23.8647H658.664C658.664 23.658 658.614 23.468 658.514 23.2947C658.421 23.1214 658.278 22.9814 658.084 22.8747C657.898 22.768 657.658 22.7147 657.364 22.7147C657.098 22.7147 656.871 22.7547 656.684 22.8347C656.498 22.9147 656.354 23.0247 656.254 23.1647C656.154 23.3047 656.104 23.468 656.104 23.6547C656.104 23.888 656.188 24.0947 656.354 24.2747C656.528 24.4547 656.804 24.5614 657.184 24.5947L657.744 24.6447C658.511 24.7114 659.124 24.9247 659.584 25.2847C660.051 25.6447 660.284 26.148 660.284 26.7947C660.284 27.2414 660.171 27.6247 659.944 27.9447C659.724 28.258 659.404 28.5014 658.984 28.6747C658.564 28.8414 658.058 28.9247 657.464 28.9247ZM656.854 30.1847V28.7247H658.014V30.1847H656.854ZM656.814 22.0847V20.6247H657.974V22.0847H656.814ZM663.638 30.7147H662.308V21.1347H663.638V30.7147ZM662.788 30.7147H661.168V29.5747H662.788V30.7147ZM662.788 22.2747H661.168V21.1347H662.788V22.2747Z" fill="white"/>
<path d="M18.3632 64.8847V57.9747L18.6932 58.2347H16.7032V57.5847H19.1132V64.8847H18.3632ZM24.0833 65.0547C23.57 65.0547 23.13 64.9647 22.7633 64.7847C22.3967 64.6047 22.0967 64.3547 21.8633 64.0347C21.63 63.708 21.4567 63.328 21.3433 62.8947C21.2367 62.4547 21.1833 61.9814 21.1833 61.4747V61.0047C21.1833 60.2914 21.2867 59.6647 21.4933 59.1247C21.7067 58.5847 22.0267 58.1614 22.4533 57.8547C22.8867 57.548 23.43 57.3947 24.0833 57.3947C24.7367 57.3947 25.2767 57.548 25.7033 57.8547C26.13 58.1614 26.4467 58.5847 26.6533 59.1247C26.8667 59.6647 26.9733 60.2914 26.9733 61.0047V61.4747C26.9733 61.9814 26.9167 62.4547 26.8033 62.8947C26.6967 63.328 26.5267 63.708 26.2933 64.0347C26.06 64.3547 25.76 64.6047 25.3933 64.7847C25.0267 64.9647 24.59 65.0547 24.0833 65.0547ZM24.0833 64.3747C24.8033 64.3747 25.3367 64.1214 25.6833 63.6147C26.0367 63.108 26.2133 62.318 26.2133 61.2447C26.2133 60.1247 26.0333 59.318 25.6733 58.8247C25.32 58.3247 24.79 58.0747 24.0833 58.0747C23.37 58.0747 22.8333 58.3247 22.4733 58.8247C22.12 59.318 21.9433 60.118 21.9433 61.2247C21.9433 62.3047 22.1167 63.1014 22.4633 63.6147C22.8167 64.1214 23.3567 64.3747 24.0833 64.3747ZM21.8185 85.3947C22.3052 85.3947 22.7185 85.4814 23.0585 85.6547C23.3985 85.8214 23.6718 86.058 23.8785 86.3647C24.0918 86.6714 24.2485 87.038 24.3485 87.4647C24.4485 87.8847 24.4985 88.3447 24.4985 88.8447V89.2647C24.4985 90.4514 24.2218 91.3614 23.6685 91.9947C23.1152 92.6214 22.2885 92.9347 21.1885 92.9347C20.9618 92.9347 20.7585 92.928 20.5785 92.9147C20.3985 92.9014 20.2052 92.8814 19.9985 92.8547V92.2047C20.2052 92.238 20.4052 92.2614 20.5985 92.2747C20.7918 92.288 21.0018 92.2947 21.2285 92.2947C21.8552 92.2947 22.3585 92.1747 22.7385 91.9347C23.1185 91.688 23.3918 91.3347 23.5585 90.8747C23.7318 90.4147 23.8185 89.858 23.8185 89.2047V88.4947L24.0185 87.9047C24.0118 88.4114 23.9118 88.8414 23.7185 89.1947C23.5318 89.548 23.2652 89.818 22.9185 90.0047C22.5718 90.1914 22.1652 90.2847 21.6985 90.2847C21.1785 90.2847 20.7385 90.178 20.3785 89.9647C20.0185 89.7514 19.7452 89.4614 19.5585 89.0947C19.3785 88.728 19.2885 88.318 19.2885 87.8647C19.2885 87.4047 19.3818 86.988 19.5685 86.6147C19.7618 86.2414 20.0452 85.9447 20.4185 85.7247C20.7918 85.5047 21.2585 85.3947 21.8185 85.3947ZM21.8185 86.0547C21.4185 86.0547 21.0818 86.1347 20.8085 86.2947C20.5418 86.4547 20.3418 86.6714 20.2085 86.9447C20.0752 87.218 20.0085 87.5247 20.0085 87.8647C20.0085 88.2047 20.0718 88.5114 20.1985 88.7847C20.3318 89.0514 20.5285 89.2647 20.7885 89.4247C21.0552 89.578 21.3818 89.6547 21.7685 89.6547C22.1485 89.6547 22.4785 89.5814 22.7585 89.4347C23.0452 89.288 23.2652 89.0814 23.4185 88.8147C23.5785 88.5414 23.6585 88.2214 23.6585 87.8547C23.6585 87.5414 23.5918 87.248 23.4585 86.9747C23.3252 86.7014 23.1218 86.4814 22.8485 86.3147C22.5752 86.1414 22.2318 86.0547 21.8185 86.0547ZM21.9955 121.055C21.4755 121.055 21.0188 120.961 20.6255 120.775C20.2321 120.581 19.9255 120.321 19.7055 119.995C19.4921 119.668 19.3855 119.295 19.3855 118.875C19.3855 118.561 19.4488 118.281 19.5755 118.035C19.7088 117.781 19.8821 117.571 20.0955 117.405C20.3088 117.231 20.5421 117.105 20.7955 117.025V116.925C20.5888 116.845 20.3988 116.735 20.2255 116.595C20.0521 116.448 19.9088 116.271 19.7955 116.065C19.6888 115.858 19.6355 115.615 19.6355 115.335C19.6355 114.935 19.7388 114.591 19.9455 114.305C20.1588 114.018 20.4421 113.798 20.7955 113.645C21.1555 113.485 21.5555 113.405 21.9955 113.405C22.4488 113.405 22.8521 113.485 23.2055 113.645C23.5588 113.798 23.8388 114.018 24.0455 114.305C24.2521 114.591 24.3555 114.935 24.3555 115.335C24.3555 115.615 24.3021 115.858 24.1955 116.065C24.0955 116.271 23.9555 116.448 23.7755 116.595C23.6021 116.735 23.4121 116.845 23.2055 116.925V117.025C23.4655 117.105 23.7021 117.231 23.9155 117.405C24.1288 117.578 24.2988 117.788 24.4255 118.035C24.5521 118.281 24.6155 118.561 24.6155 118.875C24.6155 119.295 24.5055 119.668 24.2855 119.995C24.0721 120.321 23.7688 120.581 23.3755 120.775C22.9888 120.961 22.5288 121.055 21.9955 121.055ZM21.9955 120.415C22.3955 120.415 22.7355 120.348 23.0155 120.215C23.2955 120.081 23.5088 119.898 23.6555 119.665C23.8088 119.425 23.8855 119.151 23.8855 118.845C23.8855 118.538 23.8121 118.268 23.6655 118.035C23.5188 117.801 23.3055 117.618 23.0255 117.485C22.7455 117.351 22.4021 117.285 21.9955 117.285C21.6021 117.285 21.2655 117.351 20.9855 117.485C20.7055 117.618 20.4921 117.801 20.3455 118.035C20.1988 118.268 20.1255 118.538 20.1255 118.845C20.1255 119.151 20.1988 119.425 20.3455 119.665C20.4921 119.898 20.7055 120.081 20.9855 120.215C21.2655 120.348 21.6021 120.415 21.9955 120.415ZM21.9955 116.685C22.4888 116.685 22.8821 116.575 23.1755 116.355C23.4755 116.128 23.6255 115.798 23.6255 115.365C23.6255 114.931 23.4755 114.605 23.1755 114.385C22.8821 114.165 22.4888 114.055 21.9955 114.055C21.5088 114.055 21.1155 114.165 20.8155 114.385C20.5221 114.605 20.3755 114.931 20.3755 115.365C20.3755 115.798 20.5255 116.128 20.8255 116.355C21.1255 116.575 21.5155 116.685 21.9955 116.685ZM20.6829 148.885L23.7629 142.335L23.7029 142.235H19.7029V141.585H24.4329V142.515L21.4629 148.885H20.6829ZM19.7029 143.455V141.585H20.3429V143.455H19.7029ZM22.1785 177.075C21.6918 177.075 21.2785 176.991 20.9385 176.825C20.5985 176.651 20.3218 176.411 20.1085 176.105C19.9018 175.798 19.7485 175.435 19.6485 175.015C19.5485 174.588 19.4985 174.125 19.4985 173.625V173.205C19.4985 172.018 19.7752 171.111 20.3285 170.485C20.8818 169.851 21.7085 169.535 22.8085 169.535C23.0352 169.535 23.2385 169.541 23.4185 169.555C23.5985 169.568 23.7918 169.588 23.9985 169.615V170.265C23.7918 170.231 23.5918 170.208 23.3985 170.195C23.2052 170.181 22.9952 170.175 22.7685 170.175C22.1418 170.175 21.6385 170.298 21.2585 170.545C20.8785 170.785 20.6018 171.135 20.4285 171.595C20.2618 172.055 20.1785 172.611 20.1785 173.265V173.975L19.9785 174.565C19.9852 174.058 20.0818 173.628 20.2685 173.275C20.4618 172.921 20.7318 172.651 21.0785 172.465C21.4252 172.278 21.8318 172.185 22.2985 172.185C22.8185 172.185 23.2585 172.291 23.6185 172.505C23.9785 172.718 24.2485 173.008 24.4285 173.375C24.6152 173.741 24.7085 174.151 24.7085 174.605C24.7085 175.065 24.6118 175.481 24.4185 175.855C24.2318 176.228 23.9518 176.525 23.5785 176.745C23.2052 176.965 22.7385 177.075 22.1785 177.075ZM22.1785 176.415C22.5785 176.415 22.9118 176.335 23.1785 176.175C23.4518 176.015 23.6552 175.798 23.7885 175.525C23.9218 175.251 23.9885 174.945 23.9885 174.605C23.9885 174.265 23.9218 173.961 23.7885 173.695C23.6618 173.421 23.4652 173.208 23.1985 173.055C22.9385 172.895 22.6152 172.815 22.2285 172.815C21.8485 172.815 21.5152 172.888 21.2285 173.035C20.9485 173.181 20.7285 173.391 20.5685 173.665C20.4152 173.931 20.3385 174.248 20.3385 174.615C20.3385 174.928 20.4052 175.221 20.5385 175.495C20.6718 175.768 20.8752 175.991 21.1485 176.165C21.4218 176.331 21.7652 176.415 22.1785 176.415ZM22.0441 205.055C21.4907 205.055 21.0274 204.945 20.6541 204.725C20.2807 204.498 19.9974 204.201 19.8041 203.835C19.6107 203.468 19.5141 203.075 19.5141 202.655H20.2441C20.2441 202.988 20.3141 203.285 20.4541 203.545C20.6007 203.805 20.8074 204.011 21.0741 204.165C21.3407 204.318 21.6641 204.395 22.0441 204.395C22.4241 204.395 22.7474 204.321 23.0141 204.175C23.2807 204.021 23.4841 203.815 23.6241 203.555C23.7707 203.288 23.8441 202.988 23.8441 202.655C23.8441 202.328 23.7741 202.031 23.6341 201.765C23.4941 201.498 23.2874 201.288 23.0141 201.135C22.7474 200.975 22.4241 200.895 22.0441 200.895C21.7774 200.895 21.5141 200.941 21.2541 201.035C20.9941 201.121 20.7774 201.251 20.6041 201.425H19.9141L20.2941 197.585H23.9241V198.235H20.7041L20.9141 197.975L20.6141 200.975L20.3841 200.925C20.5907 200.718 20.8341 200.555 21.1141 200.435C21.3941 200.315 21.7141 200.255 22.0741 200.255C22.6207 200.255 23.0807 200.368 23.4541 200.595C23.8274 200.821 24.1074 201.115 24.2941 201.475C24.4874 201.828 24.5841 202.201 24.5841 202.595V202.725C24.5841 203.118 24.4874 203.495 24.2941 203.855C24.1007 204.208 23.8141 204.498 23.4341 204.725C23.0607 204.945 22.5974 205.055 22.0441 205.055ZM19.3557 231.065V230.125L22.4557 225.445L22.9757 225.855L20.0357 230.315L20.1157 230.465H24.8757V231.065H19.3557ZM23.1757 232.885V227.745H23.8757V232.885H23.1757ZM21.9231 261.055C21.3898 261.055 20.9365 260.951 20.5631 260.745C20.1965 260.538 19.9165 260.258 19.7231 259.905C19.5298 259.551 19.4331 259.165 19.4331 258.745H20.1631C20.1631 259.251 20.3198 259.655 20.6331 259.955C20.9465 260.248 21.3765 260.395 21.9231 260.395C22.2765 260.395 22.5831 260.328 22.8431 260.195C23.1098 260.061 23.3131 259.871 23.4531 259.625C23.5998 259.378 23.6731 259.091 23.6731 258.765C23.6731 258.265 23.5165 257.861 23.2031 257.555C22.8898 257.248 22.4665 257.095 21.9331 257.095C21.7198 257.095 21.5365 257.121 21.3831 257.175C21.2298 257.221 21.0931 257.281 20.9731 257.355L20.5631 256.655L23.4731 254.395L23.3931 254.235H19.7231V253.585H24.0931V254.665L21.5131 256.675L21.0231 256.685C21.1431 256.631 21.2798 256.588 21.4331 256.555C21.5865 256.515 21.7631 256.495 21.9631 256.495C22.4765 256.495 22.9131 256.595 23.2731 256.795C23.6398 256.995 23.9198 257.261 24.1131 257.595C24.3065 257.928 24.4031 258.295 24.4031 258.695V258.835C24.4031 259.221 24.3065 259.585 24.1131 259.925C23.9198 260.265 23.6398 260.538 23.2731 260.745C22.9065 260.951 22.4565 261.055 21.9231 261.055ZM19.7387 288.885V287.775C19.7387 287.488 19.7787 287.245 19.8587 287.045C19.9387 286.845 20.0787 286.661 20.2787 286.495C20.4787 286.328 20.752 286.168 21.0987 286.015L22.5287 285.345C22.8754 285.185 23.152 284.975 23.3587 284.715C23.5654 284.455 23.6687 284.115 23.6687 283.695C23.6687 283.181 23.522 282.781 23.2287 282.495C22.942 282.201 22.5454 282.055 22.0387 282.055C21.5387 282.055 21.1387 282.201 20.8387 282.495C20.5454 282.781 20.3987 283.181 20.3987 283.695H19.6687C19.6687 283.261 19.7587 282.871 19.9387 282.525C20.1187 282.178 20.3854 281.905 20.7387 281.705C21.092 281.498 21.5254 281.395 22.0387 281.395C22.5587 281.395 22.992 281.498 23.3387 281.705C23.6854 281.905 23.9487 282.175 24.1287 282.515C24.3087 282.848 24.3987 283.218 24.3987 283.625V283.765C24.3987 284.285 24.2487 284.721 23.9487 285.075C23.6554 285.421 23.2687 285.708 22.7887 285.935L21.3487 286.605C21.0087 286.758 20.7787 286.918 20.6587 287.085C20.5454 287.245 20.4887 287.451 20.4887 287.705V288.595L20.2687 288.235H24.5187V288.885H19.7387ZM22.0399 316.885V309.975L22.3699 310.235H20.3799V309.585H22.7899V316.885H22.0399ZM22.0032 345.055C21.4899 345.055 21.0499 344.965 20.6832 344.785C20.3166 344.605 20.0166 344.355 19.7832 344.035C19.5499 343.708 19.3766 343.328 19.2632 342.895C19.1566 342.455 19.1032 341.981 19.1032 341.475V341.005C19.1032 340.291 19.2066 339.665 19.4132 339.125C19.6266 338.585 19.9466 338.161 20.3732 337.855C20.8066 337.548 21.3499 337.395 22.0032 337.395C22.6566 337.395 23.1966 337.548 23.6232 337.855C24.0499 338.161 24.3666 338.585 24.5732 339.125C24.7866 339.665 24.8932 340.291 24.8932 341.005V341.475C24.8932 341.981 24.8366 342.455 24.7232 342.895C24.6166 343.328 24.4466 343.708 24.2132 344.035C23.9799 344.355 23.6799 344.605 23.3132 344.785C22.9466 344.965 22.5099 345.055 22.0032 345.055ZM22.0032 344.375C22.7232 344.375 23.2566 344.121 23.6032 343.615C23.9566 343.108 24.1332 342.318 24.1332 341.245C24.1332 340.125 23.9532 339.318 23.5932 338.825C23.2399 338.325 22.7099 338.075 22.0032 338.075C21.2899 338.075 20.7532 338.325 20.3932 338.825C20.0399 339.318 19.8632 340.118 19.8632 341.225C19.8632 342.305 20.0366 343.101 20.3832 343.615C20.7366 344.121 21.2766 344.375 22.0032 344.375Z" fill="white"/>
<mask id="path-167-inside-1_344_180" fill="white">
<rect x="532" y="16.1955" width="41" height="16.1955" rx="2"/>
</mask>
<rect x="532" y="16.1955" width="41" height="16.1955" rx="2" fill="#CEA666" stroke="#343B4B" stroke-width="6" mask="url(#path-167-inside-1_344_180)"/>
<rect x="64.5" y="169.753" width="11" height="11" rx="5.5" fill="#CEA666" stroke="#343B4B" stroke-width="3"/>
<rect x="122.5" y="260.628" width="11" height="11" rx="5.5" fill="#CEA666" stroke="#343B4B" stroke-width="3"/>
<rect x="177.5" y="121.167" width="11" height="11" rx="5.5" fill="#CEA666" stroke="#343B4B" stroke-width="3"/>
<rect x="235.5" y="96.8734" width="11" height="11" rx="5.5" fill="#CEA666" stroke="#343B4B" stroke-width="3"/>
<rect x="321.5" y="118.467" width="11" height="11" rx="5.5" fill="#CEA666" stroke="#343B4B" stroke-width="3"/>
<rect x="377.5" y="189.548" width="11" height="11" rx="5.5" fill="#CEA666" stroke="#343B4B" stroke-width="3"/>
<rect x="435.5" y="167.954" width="11" height="11" rx="5.5" fill="#CEA666" stroke="#343B4B" stroke-width="3"/>
<rect x="490.5" y="100.472" width="11" height="11" rx="5.5" fill="#CEA666" stroke="#343B4B" stroke-width="3"/>
<rect x="548.5" y="169.753" width="11" height="11" rx="5.5" fill="#CEA666" stroke="#343B4B" stroke-width="3"/>
<rect x="632.5" y="96.8734" width="11" height="11" rx="5.5" fill="#CEA666" stroke="#343B4B" stroke-width="3"/>
</svg>
