<svg width="22" height="22" viewBox="0 0 22 22" fill="none" xmlns="http://www.w3.org/2000/svg">
<path d="M20.625 6.87494H19.25V5.49994C19.25 5.3176 19.1776 5.14273 19.0486 5.0138C18.9197 4.88487 18.7448 4.81244 18.5625 4.81244C18.3802 4.81244 18.2053 4.88487 18.0764 5.0138C17.9474 5.14273 17.875 5.3176 17.875 5.49994V6.87494H16.5C16.3177 6.87494 16.1428 6.94737 16.0139 7.0763C15.8849 7.20523 15.8125 7.3801 15.8125 7.56244C15.8125 7.74478 15.8849 7.91964 16.0139 8.04857C16.1428 8.17751 16.3177 8.24994 16.5 8.24994H17.875V9.62494C17.875 9.80728 17.9474 9.98214 18.0764 10.1111C18.2053 10.24 18.3802 10.3124 18.5625 10.3124C18.7448 10.3124 18.9197 10.24 19.0486 10.1111C19.1776 9.98214 19.25 9.80728 19.25 9.62494V8.24994H20.625C20.8073 8.24994 20.9822 8.17751 21.1111 8.04857C21.2401 7.91964 21.3125 7.74478 21.3125 7.56244C21.3125 7.3801 21.2401 7.20523 21.1111 7.0763C20.9822 6.94737 20.8073 6.87494 20.625 6.87494Z" fill="#CEA666"/>
<path d="M18.6054 12.4265L18.4164 12.4608C17.1855 12.8006 15.8864 12.8077 14.6519 12.4816C13.4173 12.1554 12.2913 11.5076 11.3888 10.6042C10.4863 9.70087 9.8396 8.57427 9.51464 7.33938C9.18967 6.10448 9.19808 4.80548 9.53902 3.5749C9.55587 3.52505 9.56457 3.47282 9.5648 3.42021C9.57342 3.27628 9.53657 3.13329 9.45946 3.01145C9.38235 2.88962 9.26888 2.79511 9.13512 2.7413C8.99252 2.68459 8.83478 2.67852 8.68824 2.72412C7.24251 3.12759 5.92767 3.90268 4.87459 4.97224C3.82151 6.0418 3.06693 7.36852 2.68596 8.82034C2.30499 10.2722 2.31092 11.7984 2.70315 13.2473C3.09538 14.6961 3.86024 16.0169 4.92159 17.0783C5.98294 18.1396 7.30376 18.9045 8.75259 19.2967C10.2014 19.6889 11.7277 19.6949 13.1795 19.3139C14.6313 18.9329 15.9581 18.1783 17.0276 17.1253C18.0972 16.0722 18.8723 14.7573 19.2757 13.3116C19.3185 13.1774 19.3185 13.0333 19.2757 12.8991C19.2273 12.7602 19.1366 12.64 19.0164 12.5552C18.8962 12.4705 18.7525 12.4254 18.6054 12.4265Z" fill="#CEA666"/>
</svg>
