<svg width="35" height="35" viewBox="0 0 35 35" fill="none" xmlns="http://www.w3.org/2000/svg">
<path fill-rule="evenodd" clip-rule="evenodd" d="M17.5 35C27.165 35 35 27.165 35 17.5C35 7.83502 27.165 0 17.5 0C7.83496 0 0 7.83502 0 17.5C0 27.165 7.83496 35 17.5 35ZM17.5 10C17.9155 10 18.2915 10.2294 19.0435 10.6882L22.087 12.5452C23.5098 13.4133 24.2212 13.8474 24.6106 14.5468C25 15.2462 25 16.0898 25 17.7771V20.9324C25 21.8781 25 22.351 24.8978 22.7389C24.6204 23.7916 23.8116 24.614 22.7765 24.8961C22.3949 25 21.9299 25 21 25C20.535 25 20.3025 25 20.1118 24.948C19.5941 24.8069 19.1898 24.3958 19.051 23.8694C19 23.6755 19 23.439 19 22.9662V21.9493C19 21.2302 19 20.8707 18.7803 20.6473C18.5607 20.424 18.2072 20.424 17.5 20.424C16.7928 20.424 16.4393 20.424 16.2197 20.6473C16 20.8707 16 21.2302 16 21.9493V22.9662C16 23.439 16 23.6755 15.9489 23.8694C15.8102 24.3958 15.4059 24.8069 14.8882 24.948C14.6975 25 14.465 25 14 25C13.0701 25 12.6051 25 12.2235 24.8961C11.1882 24.614 10.3796 23.7916 10.1022 22.7389C10 22.351 10 21.8781 10 20.9324V17.7771C10 16.0898 10 15.2462 10.3894 14.5468C10.7788 13.8474 11.4902 13.4133 12.913 12.5452L15.9565 10.6882C16.7085 10.2294 17.0845 10 17.5 10Z" fill="#CEA666"/>
</svg>
